<svg width="227" height="242" viewBox="0 0 227 242" fill="none" xmlns="http://www.w3.org/2000/svg">
<rect width="227" height="242" fill="#171E1E"/>
<g id="Antaragni" clip-path="url(#clip0_0_1)">
<rect width="1440" height="6713" transform="translate(-314 -2485)" fill="black"/>
<g id="background">
<path id="Vector" opacity="0.35" d="M-340.225 425.58C-325.411 424.37 -324.812 430.105 -337.311 438.274C-352.665 448.308 -370.917 467.134 -381.946 504.455C-385.689 517.187 -388.095 530.339 -385.356 544.335C-378.262 580.013 -342.734 582.4 -322.212 563.606C-283.52 528.287 -261.963 426.1 -204.285 410.652C-162.253 399.469 -104.346 423.119 -72.6058 459.68C-72.2622 460.076 -72.4756 460.959 -72.9788 460.81C-73.0377 460.793 -73.0664 460.783 -73.1268 460.772C-73.5756 460.689 -74.0179 460.605 -74.3582 460.51C-114.832 447.812 -185.386 459.291 -228.769 499.294C-269.145 536.521 -281.921 589.345 -278.088 611.658C-272.886 641.542 -248.083 641.432 -233.498 634.618C-217.329 627.194 -207.705 606.494 -192.282 590.713C-175.667 573.938 -156.04 566.978 -134.156 569.348C-118.959 570.929 -99.0865 579.243 -92.0012 583.363C-90.8988 584.004 -91.2567 585.269 -92.489 585.63C-99.6081 587.3 -106.786 588.405 -113.745 590.486C-240.591 628.559 -239.689 838.932 -381.971 868.75C-432.968 879.43 -498.694 870.469 -545.513 837.319C-546.424 836.653 -547.242 835.978 -548.051 835.301C-548.222 835.157 -548.29 834.924 -548.254 834.702C-548.216 834.475 -548.024 834.313 -547.795 834.295C-546.988 834.235 -546.171 834.265 -545.354 834.296C-537.885 834.875 -530.708 833.77 -523.662 831.393C-496.625 822.157 -471.589 792.403 -469.854 715.798C-468.701 666.589 -478.084 644.05 -473.125 592.976C-462.297 481.424 -383.059 428.748 -340.225 425.58ZM-459.375 838.943C-460.247 840.429 -459.088 842.162 -457.391 842.379C-451.239 843.166 -445.111 843.675 -438.976 843.936C-427.527 844.423 -419.124 831.94 -429.429 827.013C-438.816 822.526 -451.391 825.398 -459.375 838.943ZM-281.676 317.172C-331.601 321.147 -384.716 367.125 -416.265 420.372C-420.803 427.92 -432.434 450.374 -434.376 455.667C-434.437 455.835 -434.388 456.008 -434.262 456.132C-434.085 456.305 -433.813 456.317 -433.632 456.144C-426.292 449.108 -406.319 426.505 -374.189 410.995C-347.082 397.889 -319.199 395.711 -290.482 406.172C-282.047 409.256 -274.329 410.028 -267.618 409.465C-251.943 408.152 -258.101 398.698 -269.857 388.367C-276.428 382.821 -276.912 372.431 -264.232 363.116C-235.588 342.107 -190.594 358.725 -154.958 314.312C-152.508 311.226 -146.903 302.552 -144.894 298.1C-144.82 297.935 -144.829 297.742 -144.952 297.612C-145.169 297.383 -145.542 297.302 -145.821 297.455C-151.45 300.544 -164.11 310.139 -190.687 315.667C-219.106 321.77 -245.279 314.309 -281.676 317.172ZM-41.7023 650.379C-21.8802 655.559 8.26002 663.855 36.0772 646.232C53.8424 634.905 63.8012 616.314 68.3378 593.046C71.0103 579.408 71.3834 564.767 70.1097 552.115C70.0911 551.931 69.9376 551.808 69.7528 551.806C69.5474 551.802 69.311 551.9 69.2594 552.1C69.1286 552.607 69.0183 553.165 68.9724 553.626C66.3724 585.4 40.6121 619.53 -5.23866 604.87C-66.3053 585.22 -158.228 608.436 -203.854 696.198C-204.022 696.533 -204.26 696.868 -204.503 697.212C-206.067 699.428 -203.359 700.725 -201.601 698.66C-182.518 677.31 -160.279 662.612 -135.335 653.615C-100.773 640.946 -72.2929 642.277 -41.7023 650.379ZM60.5186 470.599C22.8285 474.611 13.9159 404.228 -69.3054 393.257C-90.6679 390.48 -114.226 391.838 -121.768 393.205C-121.968 393.241 -122.093 393.424 -122.072 393.625C-122.059 393.756 -121.987 393.868 -121.867 393.921C-118.107 395.589 -104.258 395.861 -85.1048 413.373C-74.8562 422.65 -65.1159 432.7 -55.2593 442.736C-29.6439 468.718 -0.976036 496.928 45.6328 487.034C72.2208 481.427 78.4932 471.554 85.7404 464.289C85.8512 464.177 85.9322 464.052 86.003 463.91C86.2122 463.491 85.7475 462.757 85.3765 463.043C77.634 467.789 69.2363 469.605 60.5186 470.599ZM49.4604 506.621C49.6273 506.437 49.6634 506.164 49.5888 505.929C49.5056 505.667 49.2267 505.549 48.9625 505.629C16.2686 515.611 -5.33912 522.958 -30.7866 508.912C-51.9923 497.165 -70.278 484.083 -106.416 482.624C-138.413 481.407 -159.189 485.207 -182.081 502.698C-182.354 502.974 -182.628 503.251 -182.974 503.535C-183.086 503.626 -183.149 503.777 -183.103 503.913C-183.021 504.155 -182.733 504.302 -182.488 504.227C-154.429 495.661 -141.267 492.409 -117.608 505.219C-89.8037 520.507 -67.1133 537.522 -30.2049 539.609C4.64232 541.475 28.8412 529.383 49.4604 506.621ZM-239.419 767.503C-240.35 768.92 -239.134 770.787 -237.456 770.617C-226.233 769.478 -203.565 766.709 -180.68 752.077C-158.949 738.152 -146.317 718.111 -127.132 698.896C-115.296 687.101 -101.29 682.643 -86.0044 682.617C-80.9797 682.612 -76.0121 683.18 -70.9738 683.322C-70.91 683.323 -70.8662 683.328 -70.8028 683.335C-69.9522 683.436 -69.9105 682.179 -70.6254 681.712C-70.9012 681.532 -71.1754 681.368 -71.4456 681.243C-81.4448 676.659 -91.777 674.547 -102.239 674.595C-132.956 674.377 -160.166 686.494 -185.309 706.102C-206.297 722.661 -224.276 743.312 -239.419 767.503ZM157.269 381.7C157.399 381.487 157.37 381.035 157.176 380.883C151.986 376.83 128.939 367.976 107.073 379.297C93.3452 386.443 86.5821 402.953 73.8605 417.568C64.3156 428.528 53.03 431.079 44.8236 432.699C43.7241 432.916 43.0866 434.39 44.0235 434.992C62.5698 446.041 81.257 448.203 99.9527 437.915C113.869 430.319 120.299 416.279 131.756 399.662C142.258 384.303 153.569 382.977 156.666 381.914C156.919 381.827 157.128 381.928 157.269 381.7ZM-109.526 215.554C-107.91 214.206 -109.668 212.848 -111.703 213.355C-131.313 218.239 -147.108 229.053 -159.232 250.125C-179.861 286.023 -201.328 294.301 -210.091 298.009C-210.563 298.208 -210.558 299.046 -210.05 298.988C-194.838 297.111 -179.814 294.539 -165.403 288.317C-136.93 275.913 -128.429 247.758 -122.202 232.882C-119.184 225.67 -114.929 220.177 -109.526 215.554Z" fill="url(#paint0_linear_0_1)" fill-opacity="0.42"/>
<g id="Ellipse 30" filter="url(#filter0_f_0_1)">
<path d="M-783.103 -433.286C-1830.54 308.663 -627.599 -112.815 -442.26 -116.146C-256.92 -119.476 -109.027 -266.863 -111.93 -445.345C-114.834 -623.827 -267.435 -765.816 -452.774 -762.485C-638.113 -759.155 -1608.95 -95.1827 -783.103 -433.286Z" fill="#A31212"/>
</g>
<g id="Ellipse 41" filter="url(#filter1_f_0_1)">
<path d="M1295.39 -63.8953C1295.92 1.40086 781.34 -19.8654 402.486 -16.4621C23.633 -13.0588 340.248 -15.9028 764.845 -312.946C959.505 -663.102 763.362 -757.507 1142.22 -760.91C1521.07 -764.314 1294.86 -129.191 1295.39 -63.8953Z" fill="black"/>
</g>
<g id="Ellipse 48" filter="url(#filter2_f_0_1)">
<path d="M898.68 1260.27C899.278 1333.88 202.386 1310.95 -310.727 1315.56C-823.839 1320.17 -395.022 1316.32 180.587 980.554C444.874 585.373 179.399 479.336 692.512 474.727C1205.63 470.117 898.081 1186.65 898.68 1260.27Z" fill="black"/>
</g>
<g id="Ellipse 38" filter="url(#filter3_f_0_1)">
<path d="M1435.9 593.294C1437.19 751.746 -108.963 1027.05 -306.122 1028.82C-503.28 1030.59 723.215 758.159 721.927 599.707C720.638 441.256 1113.77 168.43 1310.93 166.659C1508.08 164.888 1434.61 434.842 1435.9 593.294Z" fill="#860000"/>
</g>
<g id="Rectangle 242" filter="url(#filter4_f_0_1)">
<rect width="1444.01" height="156.593" transform="matrix(0.99996 -0.00898288 0.00813287 0.999967 -319.797 448.122)" fill="url(#paint1_linear_0_1)"/>
</g>
<g id="Ellipse 39" filter="url(#filter5_f_0_1)">
<path d="M655.655 560.75C656.267 635.913 644.813 741.62 545.129 742.515C445.445 743.411 171.28 701.228 170.669 626.065C170.058 550.902 -108.779 472.502 -9.09475 471.606C90.589 470.711 655.044 485.587 655.655 560.75Z" fill="#5C2222"/>
</g>
<g id="Ellipse 40" filter="url(#filter6_f_0_1)">
<path d="M546.451 408.951C548.386 646.919 90.0706 510.794 -129.731 512.769C-349.532 514.743 -298.739 512.644 -300.675 274.676C-302.61 36.7078 -393.788 -684.578 -173.986 -686.552C45.8148 -688.527 -274.267 16.9432 546.451 408.951Z" fill="#421212"/>
</g>
<g id="Ellipse 42" filter="url(#filter7_f_0_1)">
<path d="M-743.234 -167.148C-742.703 -101.852 -429.348 -267.186 -50.4942 -270.589C328.359 -273.992 212.55 -136.322 -216.817 -425.694C-417.144 -772.302 -174.398 -426.075 -553.252 -422.672C-932.105 -419.268 -743.765 -232.444 -743.234 -167.148Z" fill="black"/>
</g>
<g id="Ellipse 45" filter="url(#filter8_f_0_1)">
<path d="M420.751 1788.37C418.58 2026.34 932.757 1890.22 1179.35 1892.19C1425.94 1894.17 1368.96 1892.07 1371.13 1654.1C1373.3 1416.13 1475.59 694.845 1229 692.87C982.407 690.896 1341.5 1396.37 420.751 1788.37Z" fill="#421212"/>
</g>
</g>
<g id="Rectangle 4318" filter="url(#filter9_di_0_1)">
<path d="M1371.9 -573.209C707.099 -400.414 372.061 -257.365 -344.5 -643.5L-420.164 -488.498C424.276 193.146 1125.19 305.544 1675 87.2744L1371.9 -573.209Z" fill="#890303" fill-opacity="0.2" shape-rendering="crispEdges"/>
<path d="M1668.25 84.5624L1369.1 -567.315C1314.35 -553.065 1261.8 -539.015 1211.07 -525.45C956.06 -457.264 746.887 -401.335 533.287 -393.759C276.858 -384.664 14.2308 -445.202 -342.288 -636.633L-413.922 -489.887C425.799 186.842 1122.12 299.06 1668.25 84.5624Z" stroke="url(#paint2_linear_0_1)" stroke-width="10" shape-rendering="crispEdges"/>
</g>
<g id="Group 37145">
<g id="SE CARD">
<g id="Rectangle 4299">
<g filter="url(#filter10_i_0_1)">
<rect x="-60" y="-2.49609" width="371" height="500" rx="10" fill="url(#paint3_linear_0_1)"/>
</g>
<rect x="-62.5" y="-4.99609" width="376" height="505" rx="12.5" stroke="url(#paint4_linear_0_1)" stroke-width="5"/>
</g>
<g id="Group 37142">
<g id="Polygon 14" filter="url(#filter11_i_0_1)">
<path d="M-73.0489 510.003L68.4007 498.356L-58.5508 495.503L-62.4968 224.504L-73.0489 510.003Z" fill="#C2821C"/>
</g>
<g id="Polygon 15" filter="url(#filter12_i_0_1)">
<path d="M321.408 510.003L179.959 498.356L300.954 498.356C307.047 498.356 311.979 493.403 311.954 487.31L310.856 224.504L321.408 510.003Z" fill="#C2821C"/>
</g>
<g id="Polygon 12" filter="url(#filter13_i_0_1)">
<path d="M-74.9977 -18.4965L155 -1.99621L-50.1291 -1.99621C-55.6013 -1.99622 -60.0572 2.40211 -60.1283 7.8738L-62.9963 228.504L-65.9961 145.003L-74.9977 -18.4965Z" fill="#C2821C"/>
</g>
<g id="Polygon 13" filter="url(#filter14_i_0_1)">
<path d="M326.499 -18.1861L117.498 -1.99607L300.003 -1.99607C306.078 -1.99607 311.003 2.9288 311.003 9.00393L311.003 153.504L310.997 272.504L326.499 -18.1861Z" fill="#C2821C"/>
</g>
</g>
<g id="short film presentation" filter="url(#filter15_d_0_1)">
<path d="M19.1336 251.389C17.6403 251.402 16.2942 251.158 15.0952 250.656C13.896 250.133 12.951 249.394 12.2601 248.44C11.5693 247.486 11.2184 246.369 11.2075 245.089L15.1113 245.055C15.2049 246.015 15.5849 246.801 16.2515 247.414C16.9394 248.027 17.8914 248.328 19.1073 248.317C20.366 248.307 21.3447 248 22.0436 247.396C22.7423 246.772 23.0875 245.979 23.0793 245.019C23.0729 244.273 22.8437 243.667 22.3917 243.201C21.9611 242.735 21.414 242.377 20.7505 242.127C20.1083 241.877 19.21 241.607 18.0555 241.318C16.6016 240.947 15.4143 240.573 14.4938 240.197C13.5943 239.799 12.8211 239.187 12.174 238.36C11.5269 237.534 11.1974 236.427 11.1856 235.041C11.1746 233.761 11.485 232.638 12.1168 231.673C12.7486 230.707 13.6383 229.963 14.7859 229.442C15.9334 228.92 17.2645 228.652 18.7791 228.639C20.9337 228.621 22.6983 229.15 24.0729 230.226C25.4686 231.281 26.2492 232.746 26.4146 234.622L22.3827 234.657C22.3118 233.847 21.9219 233.157 21.213 232.587C20.5041 232.017 19.5736 231.737 18.4217 231.747C17.3764 231.756 16.5254 232.03 15.8686 232.569C15.2119 233.107 14.8878 233.878 14.8963 234.881C14.9022 235.564 15.1097 236.127 15.5188 236.572C15.9491 236.995 16.4853 237.331 17.1275 237.582C17.7697 237.832 18.6467 238.102 19.7585 238.391C21.2339 238.784 22.432 239.179 23.3528 239.577C24.2949 239.974 25.0896 240.597 25.7368 241.444C26.4053 242.271 26.7455 243.388 26.7575 244.796C26.7672 245.927 26.467 246.996 25.8569 248.004C25.2682 249.011 24.3898 249.83 23.2218 250.458C22.0749 251.065 20.7122 251.376 19.1336 251.389ZM53.4848 228.631L53.6749 250.87L50.0271 250.901L49.9439 241.174L39.4803 241.263L39.5634 250.991L35.9156 251.022L35.7255 228.783L39.3733 228.751L39.4549 238.287L49.9185 238.198L49.837 228.662L53.4848 228.631ZM73.4226 250.925C71.3534 250.943 69.44 250.479 67.6825 249.534C65.9462 248.568 64.5587 247.225 63.5199 245.506C62.5024 243.765 61.9843 241.807 61.9657 239.631C61.9471 237.455 62.4317 235.499 63.4196 233.762C64.4287 232.025 65.7932 230.67 67.5129 229.695C69.2538 228.699 71.1589 228.192 73.2281 228.174C75.3187 228.156 77.2322 228.631 78.9685 229.597C80.726 230.542 82.1134 231.874 83.1308 233.594C84.1482 235.313 84.6662 237.261 84.6848 239.437C84.7034 241.612 84.2189 243.579 83.2312 245.337C82.2434 247.074 80.879 248.44 79.1381 249.436C77.4184 250.411 75.5132 250.907 73.4226 250.925ZM73.3955 247.757C74.8675 247.745 76.1766 247.403 77.3229 246.732C78.469 246.039 79.3568 245.072 79.9862 243.829C80.6368 242.565 80.955 241.111 80.941 239.469C80.9269 237.826 80.584 236.389 79.9121 235.157C79.2615 233.925 78.3574 232.984 77.1998 232.332C76.0422 231.681 74.7274 231.361 73.2555 231.374C71.7836 231.387 70.4744 231.728 69.3281 232.4C68.1818 233.071 67.2833 234.028 66.6326 235.271C66.0032 236.513 65.6955 237.956 65.7095 239.599C65.7236 241.241 66.056 242.689 66.7067 243.942C67.3786 245.174 68.2934 246.126 69.4512 246.799C70.6088 247.451 71.9236 247.77 73.3955 247.757ZM104.721 250.434L99.5255 241.582L96.7416 241.606L96.8176 250.501L93.1697 250.532L92.9796 228.293L100.659 228.228C102.366 228.213 103.808 228.499 104.987 229.087C106.187 229.674 107.079 230.466 107.663 231.464C108.269 232.461 108.577 233.579 108.588 234.816C108.6 236.267 108.185 237.593 107.342 238.795C106.52 239.975 105.236 240.786 103.491 241.228L109.073 250.397L104.721 250.434ZM96.7167 238.694L100.749 238.659C102.114 238.648 103.135 238.297 103.812 237.609C104.51 236.92 104.854 236 104.844 234.848C104.834 233.696 104.485 232.803 103.797 232.169C103.109 231.513 102.071 231.192 100.685 231.204L96.6529 231.238L96.7167 238.694ZM132.365 227.957L132.39 230.933L126.471 230.983L126.635 250.246L122.987 250.278L122.823 231.014L116.871 231.065L116.846 228.089L132.365 227.957ZM167.059 227.66L167.084 230.636L157.644 230.717L157.701 237.276L165.06 237.213L165.086 240.189L157.726 240.252L157.809 249.98L154.161 250.011L153.971 227.772L167.059 227.66ZM178.887 227.559L179.077 249.798L175.429 249.829L175.239 227.59L178.887 227.559ZM192.289 246.741L199.809 246.677L199.834 249.621L188.666 249.716L188.476 227.477L192.124 227.446L192.289 246.741ZM230.917 227.114L231.107 249.353L227.46 249.385L227.329 234.153L220.676 249.443L218.148 249.464L211.202 234.291L211.332 249.522L207.684 249.554L207.494 227.314L211.43 227.281L219.387 244.653L227.013 227.148L230.917 227.114ZM-1.82298 283.73C-1.81332 284.86 -2.07086 285.929 -2.5956 286.936C-3.12035 287.944 -3.96663 288.772 -5.13445 289.422C-6.30245 290.051 -7.80375 290.373 -9.63835 290.389L-13.6702 290.423L-13.5931 299.447L-17.2409 299.478L-17.431 277.239L-9.75131 277.173C-8.04471 277.159 -6.60221 277.445 -5.42381 278.032C-4.22427 278.598 -3.33222 279.38 -2.74767 280.377C-2.14179 281.375 -1.83356 282.492 -1.82298 283.73ZM-9.66379 287.413C-8.27717 287.401 -7.24519 287.083 -6.56784 286.458C-5.89066 285.812 -5.557 284.914 -5.56685 283.762C-5.58763 281.33 -6.97398 280.125 -9.72588 280.149L-13.7577 280.183L-13.6956 287.447L-9.66379 287.413ZM18.141 299.176L12.9452 290.324L10.1613 290.347L10.2373 299.243L6.58944 299.274L6.39934 277.035L14.0791 276.969C15.7857 276.955 17.2282 277.241 18.4066 277.828C19.6063 278.416 20.4984 279.208 21.083 280.206C21.6889 281.203 21.9971 282.321 22.0077 283.558C22.0201 285.009 21.6047 286.335 20.7616 287.537C19.9397 288.717 18.6559 289.528 16.9103 289.97L22.4929 299.138L18.141 299.176ZM10.1364 287.436L14.1682 287.401C15.5335 287.389 16.5546 287.039 17.2314 286.351C17.9295 285.662 18.2737 284.742 18.2638 283.59C18.254 282.438 17.905 281.545 17.2169 280.911C16.5286 280.255 15.4911 279.933 14.1045 279.945L10.0726 279.98L10.1364 287.436ZM35.0902 279.734L35.146 286.262L42.8257 286.196L42.8512 289.172L35.1714 289.238L35.2297 296.053L43.8694 295.979L43.8948 298.955L31.6073 299.06L31.4169 276.789L43.7045 276.684L43.7299 279.66L35.0902 279.734ZM60.5174 299.037C59.0241 299.05 57.678 298.806 56.479 298.304C55.2798 297.781 54.3348 297.042 53.6439 296.088C52.9531 295.134 52.6022 294.017 52.5912 292.737L56.4951 292.703C56.5886 293.663 56.9687 294.449 57.6353 295.062C58.3232 295.675 59.2752 295.976 60.4911 295.965C61.7497 295.955 62.7285 295.648 63.4274 295.044C64.126 294.42 64.4713 293.627 64.4631 292.667C64.4567 291.921 64.2275 291.315 63.7755 290.849C63.3449 290.383 62.7978 290.025 62.1343 289.775C61.4921 289.525 60.5938 289.255 59.4393 288.966C57.9854 288.595 56.7981 288.221 55.8775 287.845C54.9781 287.447 54.2049 286.835 53.5578 286.008C52.9107 285.182 52.5812 284.075 52.5694 282.689C52.5584 281.409 52.8688 280.286 53.5006 279.321C54.1324 278.355 55.022 277.612 56.1696 277.09C57.3172 276.568 58.6483 276.3 60.1629 276.288C62.3175 276.269 64.0821 276.798 65.4567 277.874C66.8524 278.929 67.633 280.394 67.7983 282.27L63.7665 282.305C63.6956 281.495 63.3056 280.805 62.5967 280.235C61.8879 279.665 60.9574 279.385 59.8055 279.395C58.7602 279.404 57.9091 279.678 57.2524 280.217C56.5956 280.755 56.2716 281.526 56.2801 282.529C56.286 283.212 56.4935 283.775 56.9026 284.22C57.3329 284.643 57.8691 284.979 58.5113 285.23C59.1535 285.48 60.0305 285.75 61.1423 286.039C62.6177 286.432 63.8158 286.827 64.7366 287.225C65.6787 287.622 66.4734 288.245 67.1206 289.093C67.789 289.919 68.1293 291.036 68.1413 292.444C68.151 293.575 67.8508 294.644 67.2407 295.652C66.6519 296.659 65.7736 297.478 64.6056 298.106C63.4587 298.713 62.096 299.024 60.5174 299.037ZM80.7823 279.343L80.8381 285.871L88.5178 285.806L88.5432 288.781L80.8635 288.847L80.9218 295.663L89.5615 295.589L89.5869 298.565L77.2994 298.67L77.109 276.399L89.3965 276.294L89.422 279.27L80.7823 279.343ZM117.151 298.329L113.503 298.36L102.386 281.847L102.528 298.454L98.8798 298.485L98.6894 276.214L102.337 276.183L113.455 292.665L113.313 276.089L116.961 276.058L117.151 298.329ZM140.919 275.885L140.944 278.861L135.024 278.912L135.189 298.175L131.541 298.206L131.376 278.943L125.425 278.994L125.399 276.018L140.919 275.885ZM162.972 293.393L153.66 293.473L152.099 298.031L148.291 298.063L156.068 275.724L160.292 275.688L168.45 297.891L164.61 297.924L162.972 293.393ZM161.922 290.426L158.218 280.122L154.659 290.488L161.922 290.426ZM190.892 275.458L190.917 278.434L184.998 278.485L185.162 297.748L181.514 297.779L181.35 278.516L175.398 278.567L175.372 275.591L190.892 275.458ZM203.034 275.354L203.224 297.594L199.576 297.625L199.386 275.385L203.034 275.354ZM222.959 297.649C220.889 297.667 218.976 297.203 217.219 296.258C215.482 295.291 214.095 293.948 213.056 292.229C212.038 290.489 211.52 288.53 211.502 286.354C211.483 284.178 211.968 282.222 212.956 280.486C213.965 278.749 215.329 277.393 217.049 276.419C218.79 275.422 220.695 274.915 222.764 274.898C224.855 274.88 226.768 275.354 228.505 276.321C230.262 277.266 231.65 278.598 232.667 280.317C233.684 282.037 234.202 283.984 234.221 286.16C234.24 288.336 233.755 290.303 232.767 292.061C231.779 293.797 230.415 295.164 228.674 296.16C226.954 297.135 225.049 297.631 222.959 297.649ZM222.932 294.481C224.404 294.468 225.713 294.126 226.859 293.455C228.005 292.763 228.893 291.795 229.522 290.552C230.173 289.288 230.491 287.835 230.477 286.192C230.463 284.55 230.12 283.112 229.448 281.881C228.798 280.649 227.894 279.707 226.736 279.056C225.578 278.404 224.264 278.085 222.792 278.098C221.32 278.11 220.011 278.452 218.864 279.123C217.718 279.794 216.819 280.751 216.169 281.994C215.539 283.237 215.232 284.68 215.246 286.322C215.26 287.965 215.592 289.413 216.243 290.666C216.915 291.898 217.829 292.85 218.987 293.523C220.145 294.174 221.46 294.494 222.932 294.481ZM260.977 297.1L257.329 297.131L246.212 280.617L246.354 297.225L242.706 297.256L242.515 274.985L246.163 274.954L257.281 291.435L257.139 274.86L260.787 274.829L260.977 297.1Z" fill="url(#paint5_linear_0_1)"/>
</g>
</g>
<g id="SE CARD_2">
</g>
</g>
<g id="Vector_2" filter="url(#filter16_d_0_1)">
<path d="M151.559 163.9C149.131 166.816 146.492 169.455 143.643 171.818H173V184H110.913C79.4815 184 54 154.002 54 117C54 79.9977 79.4815 50 110.913 50C142.345 50 167.826 79.9977 167.826 117C167.826 135.261 161.617 151.822 151.559 163.9ZM110.913 74.3636C108.169 74.3636 105.537 75.6471 103.596 77.9316C101.655 80.2161 100.565 83.3146 100.565 86.5455C100.565 89.7763 101.655 92.8748 103.596 95.1593C105.537 97.4438 108.169 98.7273 110.913 98.7273C113.657 98.7273 116.289 97.4438 118.23 95.1593C120.171 92.8748 121.261 89.7763 121.261 86.5455C121.261 83.3146 120.171 80.2161 118.23 77.9316C116.289 75.6471 113.657 74.3636 110.913 74.3636ZM136.783 104.818C134.038 104.818 131.406 106.102 129.466 108.386C127.525 110.671 126.435 113.769 126.435 117C126.435 120.231 127.525 123.329 129.466 125.614C131.406 127.898 134.038 129.182 136.783 129.182C139.527 129.182 142.159 127.898 144.1 125.614C146.04 123.329 147.13 120.231 147.13 117C147.13 113.769 146.04 110.671 144.1 108.386C142.159 106.102 139.527 104.818 136.783 104.818ZM74.6957 117C74.6957 120.231 75.7859 123.329 77.7265 125.614C79.6671 127.898 82.2991 129.182 85.0435 129.182C87.7879 129.182 90.4199 127.898 92.3605 125.614C94.3011 123.329 95.3913 120.231 95.3913 117C95.3913 113.769 94.3011 110.671 92.3605 108.386C90.4199 106.102 87.7879 104.818 85.0435 104.818C82.2991 104.818 79.6671 106.102 77.7265 108.386C75.7859 110.671 74.6957 113.769 74.6957 117ZM110.913 135.273C108.169 135.273 105.537 136.556 103.596 138.841C101.655 141.125 100.565 144.224 100.565 147.455C100.565 150.685 101.655 153.784 103.596 156.068C105.537 158.353 108.169 159.636 110.913 159.636C113.657 159.636 116.289 158.353 118.23 156.068C120.171 153.784 121.261 150.685 121.261 147.455C121.261 144.224 120.171 141.125 118.23 138.841C116.289 136.556 113.657 135.273 110.913 135.273Z" fill="url(#paint6_linear_0_1)"/>
</g>
</g>
<defs>
<filter id="filter0_f_0_1" x="-1709.68" y="-1265.74" width="2100.99" height="1775.02" filterUnits="userSpaceOnUse" color-interpolation-filters="sRGB">
<feFlood flood-opacity="0" result="BackgroundImageFix"/>
<feBlend mode="normal" in="SourceGraphic" in2="BackgroundImageFix" result="shape"/>
<feGaussianBlur stdDeviation="251.6" result="effect1_foregroundBlur_0_1"/>
</filter>
<filter id="filter1_f_0_1" x="-266.867" y="-1260.92" width="2128.78" height="1745.19" filterUnits="userSpaceOnUse" color-interpolation-filters="sRGB">
<feFlood flood-opacity="0" result="BackgroundImageFix"/>
<feBlend mode="normal" in="SourceGraphic" in2="BackgroundImageFix" result="shape"/>
<feGaussianBlur stdDeviation="250" result="effect1_foregroundBlur_0_1"/>
</filter>
<filter id="filter2_f_0_1" x="-1040.09" y="-25.2959" width="2529.63" height="1841.67" filterUnits="userSpaceOnUse" color-interpolation-filters="sRGB">
<feFlood flood-opacity="0" result="BackgroundImageFix"/>
<feBlend mode="normal" in="SourceGraphic" in2="BackgroundImageFix" result="shape"/>
<feGaussianBlur stdDeviation="250" result="effect1_foregroundBlur_0_1"/>
</filter>
<filter id="filter3_f_0_1" x="-830.578" y="-336.35" width="2781.84" height="1868.18" filterUnits="userSpaceOnUse" color-interpolation-filters="sRGB">
<feFlood flood-opacity="0" result="BackgroundImageFix"/>
<feBlend mode="normal" in="SourceGraphic" in2="BackgroundImageFix" result="shape"/>
<feGaussianBlur stdDeviation="251.5" result="effect1_foregroundBlur_0_1"/>
</filter>
<filter id="filter4_f_0_1" x="-819.797" y="-64.8496" width="2445.22" height="1169.56" filterUnits="userSpaceOnUse" color-interpolation-filters="sRGB">
<feFlood flood-opacity="0" result="BackgroundImageFix"/>
<feBlend mode="normal" in="SourceGraphic" in2="BackgroundImageFix" result="shape"/>
<feGaussianBlur stdDeviation="250" result="effect1_foregroundBlur_0_1"/>
</filter>
<filter id="filter5_f_0_1" x="-330.617" y="171.569" width="1286.3" height="870.96" filterUnits="userSpaceOnUse" color-interpolation-filters="sRGB">
<feFlood flood-opacity="0" result="BackgroundImageFix"/>
<feBlend mode="normal" in="SourceGraphic" in2="BackgroundImageFix" result="shape"/>
<feGaussianBlur stdDeviation="150" result="effect1_foregroundBlur_0_1"/>
</filter>
<filter id="filter6_f_0_1" x="-821.047" y="-1186.56" width="1867.51" height="2236.31" filterUnits="userSpaceOnUse" color-interpolation-filters="sRGB">
<feFlood flood-opacity="0" result="BackgroundImageFix"/>
<feBlend mode="normal" in="SourceGraphic" in2="BackgroundImageFix" result="shape"/>
<feGaussianBlur stdDeviation="250" result="effect1_foregroundBlur_0_1"/>
</filter>
<filter id="filter7_f_0_1" x="-1140.52" y="-929.715" width="1669.06" height="1127.82" filterUnits="userSpaceOnUse" color-interpolation-filters="sRGB">
<feFlood flood-opacity="0" result="BackgroundImageFix"/>
<feBlend mode="normal" in="SourceGraphic" in2="BackgroundImageFix" result="shape"/>
<feGaussianBlur stdDeviation="175" result="effect1_foregroundBlur_0_1"/>
</filter>
<filter id="filter8_f_0_1" x="-79.2578" y="192.866" width="1973.23" height="2236.31" filterUnits="userSpaceOnUse" color-interpolation-filters="sRGB">
<feFlood flood-opacity="0" result="BackgroundImageFix"/>
<feBlend mode="normal" in="SourceGraphic" in2="BackgroundImageFix" result="shape"/>
<feGaussianBlur stdDeviation="250" result="effect1_foregroundBlur_0_1"/>
</filter>
<filter id="filter9_di_0_1" x="-520.164" y="-704.5" width="2295.16" height="1031.5" filterUnits="userSpaceOnUse" color-interpolation-filters="sRGB">
<feFlood flood-opacity="0" result="BackgroundImageFix"/>
<feColorMatrix in="SourceAlpha" type="matrix" values="0 0 0 0 0 0 0 0 0 0 0 0 0 0 0 0 0 0 127 0" result="hardAlpha"/>
<feOffset dy="39"/>
<feGaussianBlur stdDeviation="50"/>
<feComposite in2="hardAlpha" operator="out"/>
<feColorMatrix type="matrix" values="0 0 0 0 0.392157 0 0 0 0 0.0627451 0 0 0 0 0.0627451 0 0 0 1 0"/>
<feBlend mode="normal" in2="BackgroundImageFix" result="effect1_dropShadow_0_1"/>
<feBlend mode="normal" in="SourceGraphic" in2="effect1_dropShadow_0_1" result="shape"/>
<feColorMatrix in="SourceAlpha" type="matrix" values="0 0 0 0 0 0 0 0 0 0 0 0 0 0 0 0 0 0 127 0" result="hardAlpha"/>
<feOffset dy="-38"/>
<feGaussianBlur stdDeviation="41.4"/>
<feComposite in2="hardAlpha" operator="arithmetic" k2="-1" k3="1"/>
<feColorMatrix type="matrix" values="0 0 0 0 0 0 0 0 0 0 0 0 0 0 0 0 0 0 0.25 0"/>
<feBlend mode="normal" in2="shape" result="effect2_innerShadow_0_1"/>
</filter>
<filter id="filter10_i_0_1" x="-65" y="-7.49609" width="381" height="676.2" filterUnits="userSpaceOnUse" color-interpolation-filters="sRGB">
<feFlood flood-opacity="0" result="BackgroundImageFix"/>
<feBlend mode="normal" in="SourceGraphic" in2="BackgroundImageFix" result="shape"/>
<feColorMatrix in="SourceAlpha" type="matrix" values="0 0 0 0 0 0 0 0 0 0 0 0 0 0 0 0 0 0 127 0" result="hardAlpha"/>
<feOffset dy="204"/>
<feGaussianBlur stdDeviation="83.1"/>
<feComposite in2="hardAlpha" operator="arithmetic" k2="-1" k3="1"/>
<feColorMatrix type="matrix" values="0 0 0 0 0 0 0 0 0 0 0 0 0 0 0 0 0 0 0.25 0"/>
<feBlend mode="normal" in2="shape" result="effect1_innerShadow_0_1"/>
</filter>
<filter id="filter11_i_0_1" x="-73.0469" y="224.504" width="141.445" height="289.499" filterUnits="userSpaceOnUse" color-interpolation-filters="sRGB">
<feFlood flood-opacity="0" result="BackgroundImageFix"/>
<feBlend mode="normal" in="SourceGraphic" in2="BackgroundImageFix" result="shape"/>
<feColorMatrix in="SourceAlpha" type="matrix" values="0 0 0 0 0 0 0 0 0 0 0 0 0 0 0 0 0 0 127 0" result="hardAlpha"/>
<feOffset dy="4"/>
<feGaussianBlur stdDeviation="2"/>
<feComposite in2="hardAlpha" operator="arithmetic" k2="-1" k3="1"/>
<feColorMatrix type="matrix" values="0 0 0 0 0 0 0 0 0 0 0 0 0 0 0 0 0 0 0.25 0"/>
<feBlend mode="normal" in2="shape" result="effect1_innerShadow_0_1"/>
</filter>
<filter id="filter12_i_0_1" x="179.961" y="224.504" width="141.445" height="289.499" filterUnits="userSpaceOnUse" color-interpolation-filters="sRGB">
<feFlood flood-opacity="0" result="BackgroundImageFix"/>
<feBlend mode="normal" in="SourceGraphic" in2="BackgroundImageFix" result="shape"/>
<feColorMatrix in="SourceAlpha" type="matrix" values="0 0 0 0 0 0 0 0 0 0 0 0 0 0 0 0 0 0 127 0" result="hardAlpha"/>
<feOffset dy="4"/>
<feGaussianBlur stdDeviation="2"/>
<feComposite in2="hardAlpha" operator="arithmetic" k2="-1" k3="1"/>
<feColorMatrix type="matrix" values="0 0 0 0 0 0 0 0 0 0 0 0 0 0 0 0 0 0 0.25 0"/>
<feBlend mode="normal" in2="shape" result="effect1_innerShadow_0_1"/>
</filter>
<filter id="filter13_i_0_1" x="-75" y="-18.4961" width="230" height="251" filterUnits="userSpaceOnUse" color-interpolation-filters="sRGB">
<feFlood flood-opacity="0" result="BackgroundImageFix"/>
<feBlend mode="normal" in="SourceGraphic" in2="BackgroundImageFix" result="shape"/>
<feColorMatrix in="SourceAlpha" type="matrix" values="0 0 0 0 0 0 0 0 0 0 0 0 0 0 0 0 0 0 127 0" result="hardAlpha"/>
<feOffset dy="4"/>
<feGaussianBlur stdDeviation="2"/>
<feComposite in2="hardAlpha" operator="arithmetic" k2="-1" k3="1"/>
<feColorMatrix type="matrix" values="0 0 0 0 0 0 0 0 0 0 0 0 0 0 0 0 0 0 0.25 0"/>
<feBlend mode="normal" in2="shape" result="effect1_innerShadow_0_1"/>
</filter>
<filter id="filter14_i_0_1" x="117.5" y="-18.1865" width="209" height="294.69" filterUnits="userSpaceOnUse" color-interpolation-filters="sRGB">
<feFlood flood-opacity="0" result="BackgroundImageFix"/>
<feBlend mode="normal" in="SourceGraphic" in2="BackgroundImageFix" result="shape"/>
<feColorMatrix in="SourceAlpha" type="matrix" values="0 0 0 0 0 0 0 0 0 0 0 0 0 0 0 0 0 0 127 0" result="hardAlpha"/>
<feOffset dy="4"/>
<feGaussianBlur stdDeviation="2"/>
<feComposite in2="hardAlpha" operator="arithmetic" k2="-1" k3="1"/>
<feColorMatrix type="matrix" values="0 0 0 0 0 0 0 0 0 0 0 0 0 0 0 0 0 0 0.25 0"/>
<feBlend mode="normal" in2="shape" result="effect1_innerShadow_0_1"/>
</filter>
<filter id="filter15_d_0_1" x="-27.5437" y="223.874" width="298.22" height="92.5279" filterUnits="userSpaceOnUse" color-interpolation-filters="sRGB">
<feFlood flood-opacity="0" result="BackgroundImageFix"/>
<feColorMatrix in="SourceAlpha" type="matrix" values="0 0 0 0 0 0 0 0 0 0 0 0 0 0 0 0 0 0 127 0" result="hardAlpha"/>
<feOffset dy="7"/>
<feGaussianBlur stdDeviation="4.85"/>
<feComposite in2="hardAlpha" operator="out"/>
<feColorMatrix type="matrix" values="0 0 0 0 0 0 0 0 0 0 0 0 0 0 0 0 0 0 0.78 0"/>
<feBlend mode="normal" in2="BackgroundImageFix" result="effect1_dropShadow_0_1"/>
<feBlend mode="normal" in="SourceGraphic" in2="effect1_dropShadow_0_1" result="shape"/>
</filter>
<filter id="filter16_d_0_1" x="0.299999" y="0.299999" width="226.4" height="241.4" filterUnits="userSpaceOnUse" color-interpolation-filters="sRGB">
<feFlood flood-opacity="0" result="BackgroundImageFix"/>
<feColorMatrix in="SourceAlpha" type="matrix" values="0 0 0 0 0 0 0 0 0 0 0 0 0 0 0 0 0 0 127 0" result="hardAlpha"/>
<feOffset dy="4"/>
<feGaussianBlur stdDeviation="26.85"/>
<feComposite in2="hardAlpha" operator="out"/>
<feColorMatrix type="matrix" values="0 0 0 0 0 0 0 0 0 0 0 0 0 0 0 0 0 0 1 0"/>
<feBlend mode="normal" in2="BackgroundImageFix" result="effect1_dropShadow_0_1"/>
<feBlend mode="normal" in="SourceGraphic" in2="effect1_dropShadow_0_1" result="shape"/>
</filter>
<linearGradient id="paint0_linear_0_1" x1="-517.462" y1="259.209" x2="174.916" y2="148.759" gradientUnits="userSpaceOnUse">
<stop stop-color="#FF2020"/>
<stop offset="0.446" stop-color="#FF7B7D"/>
<stop offset="1" stop-color="#8F0C11"/>
</linearGradient>
<linearGradient id="paint1_linear_0_1" x1="0" y1="78.2965" x2="1444.01" y2="78.2965" gradientUnits="userSpaceOnUse">
<stop stop-color="#54100D"/>
<stop offset="0.104891" stop-color="#511B14"/>
<stop offset="0.170259" stop-color="#390A09"/>
<stop offset="0.216706" stop-color="#2F0B0B"/>
<stop offset="0.269172" stop-color="#2D0909"/>
<stop offset="0.281214" stop-color="#2A0B0B"/>
<stop offset="0.314759" stop-color="#280D0D"/>
<stop offset="0.338332" stop-color="#290D0D"/>
<stop offset="0.365505" stop-color="#290F0F"/>
<stop offset="0.386148" stop-color="#2A1111"/>
<stop offset="0.422273" stop-color="#2A1010"/>
<stop offset="0.456677" stop-color="#2C1111"/>
<stop offset="0.495382" stop-color="#2D1313"/>
<stop offset="0.524626" stop-color="#301212"/>
<stop offset="0.55473" stop-color="#331212"/>
<stop offset="0.584834" stop-color="#371414"/>
<stop offset="0.616658" stop-color="#381313"/>
<stop offset="0.647623" stop-color="#3D1212"/>
<stop offset="0.677727" stop-color="#411111"/>
<stop offset="0.714711" stop-color="#451111"/>
<stop offset="0.744815" stop-color="#491010"/>
<stop offset="0.766318" stop-color="#4E0E0E"/>
<stop offset="0.796422" stop-color="#500E0E"/>
<stop offset="0.835127" stop-color="#560D0D"/>
<stop offset="0.866952" stop-color="#5C0B0B"/>
<stop offset="0.897056" stop-color="#5C0A0A"/>
<stop offset="0.92888" stop-color="#600A0A"/>
<stop offset="0.957264" stop-color="#610B0B"/>
<stop offset="0.977046" stop-color="#600A0A"/>
<stop offset="1" stop-color="#610B0B"/>
</linearGradient>
<linearGradient id="paint2_linear_0_1" x1="-12.5472" y1="69.8513" x2="1225.27" y2="-127.995" gradientUnits="userSpaceOnUse">
<stop stop-color="#D38900"/>
<stop offset="0.5" stop-color="#FFDBA0"/>
<stop offset="1" stop-color="#C18923"/>
</linearGradient>
<linearGradient id="paint3_linear_0_1" x1="125.5" y1="-2.49609" x2="125.5" y2="497.504" gradientUnits="userSpaceOnUse">
<stop stop-color="#5D2019"/>
<stop offset="1" stop-color="#2A0A0A"/>
</linearGradient>
<linearGradient id="paint4_linear_0_1" x1="125.5" y1="-2.49609" x2="125.5" y2="497.504" gradientUnits="userSpaceOnUse">
<stop stop-color="#FBDA7A"/>
<stop offset="1" stop-color="#7C5114"/>
</linearGradient>
<linearGradient id="paint5_linear_0_1" x1="121.154" y1="215.292" x2="121.974" y2="311.288" gradientUnits="userSpaceOnUse">
<stop stop-color="#FFAE3D"/>
<stop offset="0.49" stop-color="#FFD188"/>
<stop offset="1" stop-color="#A6660D"/>
</linearGradient>
<linearGradient id="paint6_linear_0_1" x1="113.5" y1="50" x2="113.5" y2="184" gradientUnits="userSpaceOnUse">
<stop stop-color="#CA8920"/>
<stop offset="1" stop-color="#F9D7A1"/>
</linearGradient>
<clipPath id="clip0_0_1">
<rect width="1440" height="6713" fill="white" transform="translate(-314 -2485)"/>
</clipPath>
</defs>
</svg>
