<svg width="236" height="261" viewBox="0 0 236 261" fill="none" xmlns="http://www.w3.org/2000/svg">
<rect width="236" height="261" fill="#171E1E"/>
<g id="Antaragni" clip-path="url(#clip0_0_1)">
<rect width="1440" height="6713" transform="translate(-889 -2478)" fill="black"/>
<g id="background">
<g id="Ellipse 41" filter="url(#filter0_f_0_1)">
<path d="M720.39 -56.8953C720.921 8.40086 206.34 -12.8654 -172.514 -9.46211C-551.367 -6.05878 -234.752 -8.90282 189.845 -305.946C384.505 -656.102 188.362 -750.507 567.216 -753.91C946.069 -757.314 719.859 -122.191 720.39 -56.8953Z" fill="black"/>
</g>
<g id="Ellipse 48" filter="url(#filter1_f_0_1)">
<path d="M323.68 1267.27C324.278 1340.88 -372.614 1317.95 -885.727 1322.56C-1398.84 1327.17 -970.022 1323.32 -394.413 987.554C-130.126 592.373 -395.601 486.336 117.512 481.727C630.625 477.117 323.081 1193.65 323.68 1267.27Z" fill="black"/>
</g>
<g id="Ellipse 38" filter="url(#filter2_f_0_1)">
<path d="M860.9 600.294C862.189 758.746 -683.963 1034.05 -881.122 1035.82C-1078.28 1037.59 148.215 765.159 146.927 606.707C145.638 448.256 538.768 175.43 735.926 173.659C933.085 171.888 859.612 441.842 860.9 600.294Z" fill="#860000"/>
</g>
<g id="Rectangle 242" filter="url(#filter3_f_0_1)">
<rect width="1444.01" height="156.593" transform="matrix(0.99996 -0.00898288 0.00813287 0.999967 -894.797 455.122)" fill="url(#paint0_linear_0_1)"/>
</g>
<g id="Ellipse 39" filter="url(#filter4_f_0_1)">
<path d="M80.6555 567.75C81.2668 642.913 69.8127 748.62 -29.871 749.515C-129.555 750.411 -403.72 708.228 -404.331 633.065C-404.942 557.902 -683.779 479.502 -584.095 478.606C-484.411 477.711 80.0442 492.587 80.6555 567.75Z" fill="#5C2222"/>
</g>
<g id="Ellipse 40" filter="url(#filter5_f_0_1)">
<path d="M-28.5489 415.951C-26.6135 653.919 -484.929 517.794 -704.731 519.769C-924.532 521.743 -873.739 519.644 -875.675 281.676C-877.61 43.7078 -968.788 -677.578 -748.986 -679.552C-529.185 -681.527 -849.267 23.9432 -28.5489 415.951Z" fill="#421212"/>
</g>
<path id="Ellipse 42" d="M-1318.23 -160.148C-1317.7 -94.8521 -1004.35 -260.186 -625.494 -263.589C-246.641 -266.992 -362.45 -129.322 -791.817 -418.694C-992.144 -765.302 -749.398 -419.075 -1128.25 -415.672C-1507.11 -412.268 -1318.76 -225.444 -1318.23 -160.148Z" fill="black"/>
<g id="Group 3653">
<g id="Vector">
<g>
<path d="M822.73 187.893C811.191 176.896 806.728 180.886 811.661 195.639C817.746 213.838 820.276 240.701 804.183 276.65C798.668 288.919 791.74 300.588 779.903 309.362C749.633 331.649 718.07 309.031 713.574 280.604C705.018 227.098 756.43 134.46 718.346 83.0254C690.547 45.6058 625.665 23.7864 574.03 29.7857C573.464 29.8514 573.028 30.6771 573.553 30.9064C573.613 30.9324 573.642 30.9443 573.699 30.9762C574.134 31.2224 574.565 31.4637 574.917 31.6256C617.668 49.7947 669.304 107.064 678.624 167.363C687.299 223.481 662.098 272.491 643.676 286.846C618.946 306.023 598.12 288.879 590.469 273.659C581.9 256.885 587.885 234.503 585.633 211.878C583.054 187.677 571.255 168.878 551.201 155.63C537.339 146.395 514.975 139.065 506.174 137.315C504.81 137.044 504.22 138.258 505.004 139.369C509.866 145.538 515.162 151.315 519.609 157.687C600.572 273.924 536.988 342.933 636.579 463.5C672.279 506.708 720.664 645.116 782.687 652.075C783.977 652.202 724.925 643.778 719.642 642.908C719.402 642.868 719.345 642.698 719.467 642.5C719.588 642.305 719.541 642.057 719.367 641.893C718.725 641.286 718.011 640.744 717.297 640.202C710.609 635.506 705.313 629.728 700.995 623.071C684.501 597.443 683.664 557.566 734.36 498.041C766.893 459.778 790.146 449.069 820.743 406.768C887.571 314.378 856.668 219.767 822.73 187.893ZM641.684 584.604C641.409 586.319 639.269 586.868 637.732 585.893C631.93 582.21 626.343 578.327 620.924 574.246C611.038 566.8 612.835 551.532 624.817 554.992C635.666 558.124 644.16 568.916 641.684 584.604ZM847.208 65.075C886.569 102.441 900.022 173.984 890.351 236.229C889.036 245.091 883.556 270.16 881.585 275.55C881.52 275.726 881.354 275.83 881.157 275.837C880.894 275.847 880.665 275.676 880.631 275.426C879.236 265.032 877.801 234.072 861.281 200.149C847.363 171.524 825.351 150.688 794.029 138.901C784.822 135.448 777.793 130.727 772.52 125.682C760.348 114.036 771.77 110.938 788.773 111.158C798.086 111.454 805.569 103.876 801.226 88.0607C791.394 52.3621 742.165 34.0685 742.376 -24.2609C742.413 -28.2925 743.595 -38.7415 744.933 -43.5178C744.984 -43.6998 745.128 -43.8464 745.325 -43.8601C745.66 -43.8831 746.02 -43.6988 746.147 -43.3985C748.787 -37.1885 752.912 -21.1654 771.561 1.34659C791.353 25.5397 818.487 37.8608 847.208 65.075ZM418.124 153.741C397.894 144.052 366.848 129.638 355.407 97.0858C348.149 76.2424 352.416 55.2359 364.436 34.3983C371.467 22.1798 381.117 10.7784 390.801 2.02156C390.948 1.88904 391.167 1.89911 391.326 2.02494C391.501 2.16285 391.631 2.39849 391.536 2.59001C391.301 3.0648 391.015 3.56383 390.741 3.9449C371.297 29.9283 369.766 73.6347 418.384 94.0081C483.22 121.047 544.871 201.951 523.563 300.16C523.472 300.543 523.447 300.978 523.416 301.422C523.226 304.137 520.136 303.32 519.992 300.594C519.99 300.557 519.989 300.521 519.988 300.484C518.444 271.103 509.712 244.615 494.819 220.607C474.322 187.188 449.417 168.613 418.124 153.741ZM454.395 -53.4613C483.423 -24.4831 538.855 -71.9461 616.451 -23.06C636.353 -10.4748 655.288 6.77371 660.702 12.9941C660.84 13.1532 660.819 13.3745 660.665 13.5127C660.564 13.6033 660.427 13.64 660.293 13.5989C655.99 12.2856 644.136 2.96354 616.067 3.12453C601.115 3.13916 586.065 4.0922 570.926 4.95521C531.651 7.12088 488.287 8.88315 455.748 -30.7082C437.162 -53.2654 438.599 -65.0972 437.439 -75.6139C437.422 -75.7675 437.437 -75.9122 437.47 -76.0608C437.576 -76.5305 438.476 -76.785 438.594 -76.3125C441.886 -67.3733 447.726 -60.2144 454.395 -53.4613ZM439.187 -18.4232C439.172 -18.6791 439.331 -18.9163 439.558 -19.0465C439.803 -19.187 440.108 -19.0909 440.269 -18.8577C461.029 11.2406 474.233 31.7039 505.247 38.5126C531.114 44.1531 555.429 46.769 586.874 70.5137C614.664 91.5951 629.584 108.779 636.964 137.843C637.007 138.241 637.049 138.64 637.148 139.096C637.179 139.241 637.129 139.4 636.996 139.472C636.763 139.598 636.427 139.52 636.276 139.301C618.458 113.47 609.584 101.936 580.92 95.4171C547.082 87.9337 516.377 85.2834 483.856 61.4867C453.222 38.9405 441.064 13.09 439.187 -18.4232ZM504.981 378.917C504.803 380.618 502.528 381.244 501.265 379.995C492.603 371.431 475.331 353.712 465.989 326.77C457.158 301.22 460.16 277.271 457.076 249.444C455.133 232.322 446.367 219.294 433.505 208.76C429.272 205.3 424.698 202.314 420.355 198.955C420.303 198.915 420.265 198.89 420.209 198.854C419.431 198.353 420.264 197.359 421.184 197.497C421.531 197.548 421.865 197.612 422.172 197.7C433.718 201.088 443.863 206.586 452.646 213.818C478.678 234.78 493.356 262.722 501.192 294.946C507.603 321.99 508.692 350.081 504.981 378.917ZM433.398 -187.69C433.428 -187.948 433.771 -188.276 434.043 -188.257C441.189 -187.766 466.62 -178.654 477.332 -155.004C484.034 -140.121 478.491 -122.897 479.261 -103.019C479.842 -88.0811 487.642 -78.3685 493.458 -71.4882C494.216 -70.5911 493.719 -69.0464 492.539 -69.2291C469.388 -73.5721 452.169 -84.7794 443.42 -105.472C436.866 -120.828 441.007 -135.942 442.667 -156.474C444.278 -175.428 435.615 -184.215 433.751 -187.139C433.603 -187.37 433.367 -187.425 433.398 -187.69ZM771.335 -130.709C770.895 -132.832 773.275 -132.697 774.626 -130.939C787.853 -113.718 793.817 -94.6059 789.681 -70.1961C782.621 -28.6678 795.078 -7.59912 799.936 1.24925C800.193 1.71665 799.613 2.3488 799.233 1.96404C787.693 -9.92906 776.785 -22.2203 768.878 -36.8702C753.33 -65.8998 765.337 -93.1859 770.219 -108.795C772.586 -116.363 772.741 -123.473 771.335 -130.709Z" fill="#300404"/>
</g>
<path d="M431.369 -187.96C431.326 -187.596 431.369 -187.202 431.537 -186.815C431.694 -186.455 431.913 -186.213 432.028 -186.094C432.055 -186.067 432.08 -186.042 432.102 -186.021C432.391 -185.581 432.748 -185.098 433.153 -184.55C434.391 -182.876 436.075 -180.599 437.637 -177.093C439.705 -172.451 441.41 -165.836 440.632 -156.682L440.631 -156.675C440.262 -152.1 439.768 -147.797 439.294 -143.669C439.24 -143.198 439.186 -142.73 439.133 -142.264C438.614 -137.723 438.139 -133.375 437.924 -129.178C437.493 -120.765 438.096 -112.826 441.533 -104.776C450.606 -83.3229 468.513 -71.7577 492.196 -67.3148L492.23 -67.3084L492.264 -67.3032C494.065 -67.0246 495.245 -68.1657 495.651 -69.258C496.036 -70.2934 495.921 -71.6395 495.033 -72.6902C489.261 -79.5185 481.856 -88.7894 481.301 -103.041C481.036 -109.899 481.529 -116.366 482.008 -122.65C482.216 -125.374 482.421 -128.064 482.56 -130.737C483.015 -139.449 482.752 -147.856 479.204 -155.736L479.202 -155.74C473.64 -168.02 464.271 -176.494 455.425 -181.947C446.644 -187.36 438.162 -189.927 434.137 -190.203C433.174 -190.269 432.496 -189.773 432.206 -189.511C431.892 -189.227 431.457 -188.698 431.369 -187.96ZM431.369 -187.96L433.398 -187.69M431.369 -187.96C431.369 -187.959 431.369 -187.959 431.369 -187.959L433.398 -187.69M433.398 -187.69C433.428 -187.948 433.771 -188.276 434.043 -188.257C434.428 -188.231 434.866 -188.179 435.352 -188.102M433.398 -187.69C433.378 -187.521 433.467 -187.437 433.573 -187.339C433.633 -187.283 433.697 -187.223 433.751 -187.139C433.817 -187.036 433.891 -186.925 433.973 -186.806C434.077 -186.658 434.193 -186.497 434.319 -186.324C434.21 -186.308 434.087 -186.301 433.95 -186.311C434.077 -186.302 434.212 -186.29 434.355 -186.274C434.463 -186.127 434.579 -185.971 434.701 -185.806C437.568 -181.93 444.082 -173.125 442.667 -156.474C442.294 -151.866 441.797 -147.531 441.323 -143.405C439.687 -129.146 438.337 -117.382 443.42 -105.472L435.352 -188.102M435.352 -188.102C435.337 -188.146 435.32 -188.191 435.301 -188.235C435.184 -188.503 435.028 -188.667 434.986 -188.71C434.966 -188.731 434.953 -188.743 434.974 -188.723L434.977 -188.72C434.993 -188.705 435.035 -188.666 435.076 -188.625C435.178 -188.525 435.337 -188.357 435.487 -188.123C435.497 -188.107 435.507 -188.091 435.518 -188.075M435.352 -188.102L435.518 -188.075M435.518 -188.075C444.184 -186.622 467.261 -177.237 477.332 -155.004L435.518 -188.075ZM715.593 280.362L715.592 280.358C713.506 267.308 715.064 251.744 718.079 234.767C719.772 225.235 721.888 215.428 724.044 205.433C725.747 197.539 727.476 189.528 729.041 181.441C732.56 163.267 735.183 145.023 734.504 128.048C733.826 111.062 729.837 95.2081 720.003 81.9261L720.001 81.9235C705.783 62.785 682.205 47.7727 655.8 38.2989C629.378 28.8188 599.915 24.8066 573.732 27.8487C572.57 27.9837 571.828 28.7834 571.516 29.4482C571.345 29.8117 571.191 30.361 571.328 30.9928C571.486 31.7204 571.995 32.3486 572.741 32.6759C573.148 32.9061 573.639 33.1812 574.072 33.3801L574.1 33.393L574.129 33.4051C595.099 42.3177 618.434 60.9217 637.701 84.8596C656.955 108.783 672.008 137.862 676.604 167.599C680.887 195.306 676.808 221.276 669.377 242.093C661.924 262.971 651.18 278.449 642.361 285.321C630.507 294.511 619.906 294.833 611.431 291.361C602.773 287.814 595.977 280.156 592.306 272.851L592.3 272.84C588.247 264.908 587.58 255.53 587.723 245.039C587.761 242.266 587.856 239.41 587.954 236.495C588.219 228.533 588.5 220.127 587.665 211.744L587.664 211.731C585.025 186.96 572.904 167.625 552.334 154.035C545.214 149.293 535.993 145.086 527.502 141.855C519.009 138.623 511.096 136.311 506.54 135.405C505.126 135.124 503.659 135.602 502.963 136.896C502.33 138.072 502.609 139.423 503.321 140.431L503.352 140.475L503.385 140.517C505.216 142.84 507.063 145.057 508.884 147.244C512.039 151.03 515.119 154.728 517.918 158.738C555.644 212.9 561.748 256.652 567.879 300.592C568.278 303.454 568.677 306.317 569.086 309.183C575.781 356.193 584.858 403.995 634.989 464.684L634.989 464.685C643.772 475.315 653.404 491.898 663.945 511.086C666.648 516.007 669.409 521.095 672.226 526.287C678.789 538.382 685.658 551.041 692.822 563.473C691.852 566.689 691.074 569.816 690.474 572.858C686.315 593.944 690.741 610.82 699.263 624.062L699.267 624.068C703.702 630.903 709.164 636.875 716.084 641.741C716.552 642.097 716.976 642.42 717.364 642.744C717.375 642.956 717.42 643.184 717.515 643.42C717.899 644.377 718.781 644.738 719.346 644.831C722.016 645.27 738.136 647.599 753.377 649.795C755.735 650.135 758.073 650.471 760.34 650.798C765.407 651.528 770.113 652.205 773.87 652.748C775.947 653.048 777.733 653.307 779.129 653.51C780.247 653.718 781.371 653.886 782.501 654.013L782.516 654.015L782.53 654.016C782.544 654.017 782.567 654.02 782.595 654.022L782.596 654.022C782.608 654.023 782.691 654.029 782.792 654.028C782.874 654.025 783.175 653.987 783.39 653.932C784.31 653.326 784.554 651.289 783.827 650.473C783.637 650.362 783.359 650.244 783.282 650.219C783.242 650.207 783.177 650.189 783.151 650.183C783.056 650.16 782.951 650.143 782.934 650.141L782.932 650.14C782.841 650.125 782.699 650.103 782.518 650.076C782.149 650.02 781.574 649.935 780.823 649.825C780.494 649.777 780.13 649.724 779.734 649.666C766.1 647.103 752.93 637.931 740.212 624.464C726.552 610 713.664 590.848 701.531 570.45C700.083 568.017 698.648 565.568 697.224 563.108C702.964 545.071 714.976 523.93 735.956 499.297L735.957 499.295C749.981 482.802 762.256 471.47 774.223 460.423C776.061 458.726 777.892 457.035 779.721 455.334C793.469 442.546 807.031 429.197 822.432 407.905C889.782 314.794 858.847 219.12 824.147 186.524C821.2 183.716 818.573 181.732 816.316 180.65C814.149 179.611 811.65 179.114 809.727 180.567C807.958 181.904 807.547 184.3 807.647 186.685C807.752 189.212 808.457 192.418 809.718 196.189C815.653 213.94 818.204 240.32 802.304 275.841C796.841 287.993 790.078 299.318 778.631 307.805C764.097 318.506 749.506 318.324 738.02 312.296C726.411 306.203 717.752 294.014 715.593 280.362ZM572.782 32.6939C572.788 32.6963 572.782 32.6937 572.771 32.6887L572.782 32.6939ZM782.366 653.99C782.366 653.99 782.361 653.989 782.354 653.988C782.363 653.989 782.366 653.99 782.366 653.99ZM574.362 29.1355C574.363 29.1361 574.365 29.1368 574.366 29.1375L574.362 29.1357L574.362 29.1355ZM643.702 584.947L643.703 584.943C646.317 568.385 637.305 556.573 625.361 553.125C621.935 552.136 618.924 552.41 616.616 553.852C614.338 555.275 613.073 557.631 612.653 560.177C611.821 565.223 614.17 571.611 619.686 575.766C625.148 579.88 630.782 583.796 636.634 587.51C637.925 588.329 639.491 588.527 640.842 588.119C642.235 587.698 643.437 586.604 643.702 584.947ZM848.628 63.7085L848.626 63.7072C835.81 51.5635 823.299 42.3567 811.709 33.8274C810.21 32.7241 808.726 31.6322 807.259 30.5467C794.419 21.0462 782.876 12.0498 773.157 0.169778L773.149 0.160105C757.563 -18.6544 752.302 -32.7784 749.418 -40.5192C748.895 -41.9237 748.45 -43.1181 748.036 -44.0922C747.514 -45.3207 746.213 -45.8812 745.126 -45.8062L745.125 -45.8062C743.861 -45.7187 743.166 -44.807 742.959 -44.0676C741.568 -39.0992 740.373 -28.4821 740.335 -24.3286L740.335 -24.3183C740.227 5.47786 752.791 25.0689 766.446 41.5721C769.367 45.1016 772.346 48.5006 775.252 51.815C775.729 52.3596 776.204 52.9019 776.677 53.4421C780.037 57.2817 783.271 61.0207 786.231 64.7964C792.151 72.3479 796.893 79.9433 799.253 88.5112C801.337 96.1035 800.483 101.352 798.378 104.591C796.305 107.781 792.819 109.336 788.788 109.208L788.768 109.207L788.748 109.207C784.441 109.151 780.425 109.304 777.012 109.765C773.65 110.218 770.648 110.998 768.543 112.338C767.466 113.024 766.549 113.904 765.984 115.031C765.409 116.18 765.268 117.451 765.527 118.778C766.022 121.316 767.974 124.057 771.095 127.043C776.57 132.282 783.844 137.158 793.325 140.715C824.113 152.3 845.73 172.75 859.433 200.933L859.434 200.934C873.676 230.179 876.581 257.156 878.028 270.587C878.242 272.575 878.424 274.266 878.606 275.624C878.789 276.989 880.049 277.835 881.292 277.787C882.204 277.752 883.148 277.236 883.514 276.236C884.551 273.4 886.441 265.649 888.212 257.643C889.993 249.592 891.704 241.059 892.372 236.557C897.24 205.217 896.291 171.531 889.159 140.945C882.031 110.378 868.688 82.7518 848.628 63.7085ZM417.247 155.481L417.253 155.484C448.26 170.219 472.817 188.55 493.064 221.561L493.07 221.57C507.788 245.296 516.418 271.463 517.947 300.51C517.949 300.554 517.951 300.598 517.953 300.641L517.953 300.642C518.059 302.657 519.316 304.455 521.213 304.934C522.194 305.182 523.306 305.031 524.177 304.313C525.016 303.622 525.382 302.615 525.453 301.602C525.488 301.101 525.507 300.839 525.555 300.635L525.559 300.619L525.562 300.603C547.085 201.404 484.826 119.611 419.163 92.2244C395.433 82.2806 384.172 66.7821 381.046 50.7708C377.9 34.6511 382.952 17.7489 392.412 5.10695L392.423 5.0924L392.434 5.07767C392.785 4.58847 393.122 3.99444 393.386 3.46059L391.536 2.59001L393.386 3.46037C393.737 2.75048 393.616 2.05447 393.422 1.59554C393.232 1.14727 392.925 0.788478 392.601 0.532847C391.758 -0.131585 390.368 -0.307238 389.378 0.587867C379.563 9.46287 369.782 21.0155 362.642 33.4226C350.447 54.5634 345.978 76.1383 353.472 97.6583L353.473 97.6636C365.009 130.487 395.946 145.289 416.104 154.934C416.489 155.118 416.87 155.301 417.247 155.481ZM617.546 -24.6787L617.543 -24.6806C578.194 -49.4707 544.402 -49.8211 516.991 -47.6708C513.03 -47.3601 509.233 -47.0014 505.588 -46.6571C496.545 -45.8029 488.438 -45.0371 481.077 -45.3103C470.895 -45.688 462.6 -48.0584 455.858 -54.7854C449.285 -61.4423 443.691 -68.3395 440.539 -76.8602C440.301 -77.6077 439.711 -78.1389 439.029 -78.3729C438.414 -78.5842 437.843 -78.5235 437.463 -78.4285C436.81 -78.2652 435.743 -77.7183 435.474 -76.5165C435.409 -76.2276 435.364 -75.8736 435.408 -75.4664L435.408 -75.4593C435.541 -74.2522 435.64 -72.9924 435.744 -71.6734C436.071 -67.5034 436.444 -62.7425 438.096 -57.1882C440.295 -49.7944 444.731 -40.9656 454.157 -29.5259C487.443 10.9737 531.914 9.06372 571.096 6.90318L571.1 6.90294C572.501 6.82311 573.9 6.74258 575.297 6.66209C589.03 5.87136 602.618 5.08896 616.122 5.07573L616.132 5.07568C629.916 4.99663 639.65 7.2439 646.429 9.6371C649.825 10.836 652.505 12.0802 654.621 13.117C655.065 13.3346 655.503 13.5529 655.922 13.7613C656.469 14.0336 656.983 14.2889 657.429 14.5035C658.225 14.8863 659.009 15.2398 659.717 15.4561C660.645 15.7393 661.525 15.4529 662.084 14.9499C662.939 14.1815 663.157 12.8032 662.258 11.7696C656.698 5.38136 637.602 -11.9962 617.546 -24.6787ZM588.118 68.9976L588.114 68.9948C560.073 47.8205 537.499 43.1873 514.945 38.5582C511.853 37.9234 508.76 37.2888 505.654 36.6115C476.49 30.2086 463.605 11.5071 443.79 -17.2537C443.188 -18.1271 442.58 -19.0098 441.965 -19.9017C441.301 -20.8647 439.814 -21.4951 438.474 -20.7263C437.751 -20.3114 437.083 -19.47 437.149 -18.3628C439.058 13.6864 451.485 40.0932 482.637 63.0211L482.642 63.0245C510.1 83.1162 536.402 88.377 563.812 93.8591C569.325 94.9617 574.883 96.0733 580.503 97.3162C594.579 100.518 603.616 104.904 611.319 111.55C619.112 118.273 625.641 127.386 634.58 140.345C635.343 141.451 636.886 141.8 638.039 141.175C639.119 140.589 639.304 139.474 639.147 138.749C639.072 138.405 639.039 138.1 638.995 137.695L638.981 137.561L638.948 137.429C631.417 107.772 616.113 90.2348 588.118 68.9976ZM464.051 327.338L464.052 327.34C473.548 354.726 491.098 372.714 499.815 381.333C502.163 383.654 506.624 382.67 507.01 379.186C510.743 350.159 509.65 321.846 503.182 294.562L503.18 294.551C495.274 262.041 480.417 233.666 453.946 212.346C444.951 204.941 434.552 199.306 422.725 195.836L422.714 195.833C422.279 195.708 421.841 195.628 421.447 195.569C420.164 195.377 419.019 195.954 418.404 196.754C418.082 197.172 417.793 197.799 417.872 198.556C417.959 199.383 418.454 200.048 419.099 200.464L419.105 200.466L419.1 200.463C419.103 200.465 419.107 200.468 419.11 200.471C420.996 201.928 422.925 203.317 424.817 204.68C425.135 204.909 425.452 205.138 425.768 205.366C427.98 206.962 430.137 208.541 432.199 210.228C444.738 220.496 453.17 233.08 455.046 249.6C456.072 258.862 456.417 267.633 456.756 276.255C456.924 280.532 457.091 284.773 457.339 289.019C458.082 301.745 459.552 314.32 464.051 327.338ZM791.697 -69.8347L791.697 -69.8356C795.924 -94.7836 789.808 -114.43 776.261 -132.067C775.312 -133.302 773.795 -134.257 772.22 -134.23C771.363 -134.216 770.39 -133.884 769.772 -133.007C769.19 -132.184 769.162 -131.216 769.329 -130.393C770.679 -123.437 770.528 -116.645 768.261 -109.398C767.769 -107.824 767.197 -106.115 766.583 -104.283C761.218 -88.2631 752.702 -62.8363 767.065 -36.0173L767.068 -36.0116C775.112 -21.1084 786.183 -8.65251 797.753 3.27064L797.759 3.27717L797.766 3.28364C798.295 3.81938 799.053 4.11163 799.846 4.01646C800.542 3.9328 801.045 3.57953 801.349 3.2599C801.91 2.67122 802.374 1.53532 801.739 0.378201C801.608 0.139774 801.472 -0.107051 801.331 -0.362424C798.864 -4.83445 794.95 -11.9302 792.327 -22.6171C789.553 -33.9168 788.207 -49.3073 791.697 -69.8347ZM419.12 200.477C419.123 200.479 419.121 200.478 419.118 200.476L419.12 200.477Z" stroke="url(#paint1_linear_0_1)" stroke-width="4"/>
</g>
<g id="Vector_2" opacity="0.52">
<g>
<path d="M900.799 412.249C887.829 399.876 882.755 404.418 888.002 421.09C894.435 441.53 896.624 471.877 877.367 512.932C870.785 526.911 862.618 540.242 848.968 550.405C814.068 576.223 778.925 551.325 774.606 519.296C766.371 459.014 827.142 353.257 785.398 295.933C754.916 254.221 681.977 230.921 623.308 238.798C622.676 238.882 622.185 239.813 622.774 240.067C622.844 240.097 622.879 240.11 622.946 240.147C623.431 240.415 623.911 240.678 624.304 240.853C672.242 260.489 729.181 324.122 738.096 392.065C746.396 455.297 716.509 511.206 695.247 527.812C666.706 550 643.579 531.063 635.327 514.024C626.075 495.249 633.465 469.833 631.531 444.314C629.269 417.02 616.413 396.024 594.055 381.473C578.569 371.307 553.358 363.48 543.479 361.709C541.939 361.433 541.29 362.808 542.161 364.066C547.501 370.934 553.343 377.352 558.208 384.459C646.765 514.113 479.277 697.439 588.821 831.596C628.089 879.674 696.699 921.762 766.777 928.328C768.158 928.439 769.46 928.469 770.753 928.491C771.027 928.496 771.273 928.345 771.413 928.125C771.559 927.896 771.506 927.604 771.301 927.411C770.595 926.747 769.809 926.155 769.024 925.564C761.575 920.397 755.732 913.979 751.021 906.547C733.033 877.932 733.171 832.889 792.228 764.566C830.13 720.647 856.765 708.06 892.582 659.619C970.812 553.82 938.379 447.556 900.799 412.249ZM684.874 864.32C684.511 866.292 682.044 866.91 680.262 865.797C673.927 861.839 667.831 857.661 661.923 853.263C650.77 844.962 652.578 827.657 666.155 831.102C678.564 834.251 688.144 846.339 684.874 864.32ZM931.878 272.952C975.453 314.352 988.744 394.914 976.091 465.453C974.358 475.506 967.454 503.997 965.08 510.089C965.006 510.279 964.827 510.39 964.613 510.402C964.309 510.419 964.041 510.219 964.008 509.927C962.713 498.19 961.921 463.255 944.14 425.291C929.152 393.236 904.782 370.152 869.618 357.489C859.282 353.779 851.447 348.592 845.611 343.002C831.903 329.872 845.272 326.355 864.42 326.249C874.962 326.388 883.646 317.669 879.157 299.888C868.991 259.755 813.717 240.113 815.546 174.197C815.698 169.636 817.325 157.784 818.972 152.367C819.032 152.169 819.19 152.009 819.405 151.989C819.792 151.953 820.211 152.173 820.352 152.523C823.174 159.507 827.428 177.511 847.912 202.522C869.675 229.446 900.081 242.801 931.878 272.952ZM443.34 382.124C420.685 371.599 385.905 355.961 373.831 319.416C366.176 296.015 371.583 272.188 385.768 248.39C394.071 234.429 405.322 221.337 416.538 211.237C416.698 211.093 416.936 211.104 417.11 211.241C417.304 211.395 417.45 211.661 417.341 211.872C417.062 212.416 416.722 212.989 416.4 213.427C393.663 243.196 390.737 292.616 445.262 314.62C517.981 343.818 585.621 433.949 558.804 545.371C558.639 546.006 558.628 546.763 558.526 547.494C558.163 550.12 555.104 549.173 554.792 546.524C554.762 546.272 554.746 546.032 554.745 545.812C553.797 512.643 544.626 482.895 528.407 456.078C506.096 418.743 478.387 398.274 443.34 382.124ZM490.08 147.227C522.177 179.364 586.271 124.571 672.849 178.189C695.036 191.983 716.003 211.059 721.986 217.988C722.146 218.174 722.12 218.432 721.941 218.593C721.826 218.696 721.669 218.739 721.514 218.694C716.672 217.295 703.495 207.016 671.7 207.785C654.761 208.115 637.684 209.507 620.509 210.799C575.954 214.068 526.778 216.966 490.993 172.909C470.551 147.809 472.501 134.409 471.473 122.549C471.458 122.363 471.483 122.187 471.531 122.005C471.669 121.483 472.68 121.203 472.801 121.735C476.288 131.768 482.708 139.735 490.08 147.227ZM471.895 187.132C471.885 186.845 472.065 186.581 472.319 186.434C472.607 186.266 472.967 186.378 473.154 186.655C495.841 220.215 510.245 243.05 545.184 250.093C574.336 255.925 601.812 258.372 636.79 284.546C667.7 307.786 684.135 326.892 691.704 359.579C691.741 360.028 691.778 360.477 691.877 360.989C691.909 361.154 691.849 361.334 691.7 361.417C691.431 361.567 691.041 361.473 690.868 361.217C671.397 332.418 661.653 319.576 629.366 312.811C591.234 305.063 556.52 302.711 520.324 276.501C486.231 251.664 473.162 222.705 471.895 187.132ZM535.606 634.755C535.354 636.712 532.726 637.4 531.271 635.956C521.659 626.424 502.668 606.793 492.851 576.644C483.544 547.958 487.597 520.833 484.862 489.453C483.127 470.146 473.551 455.608 459.266 443.974C454.567 440.154 449.469 436.877 444.643 433.175C444.58 433.127 444.534 433.097 444.467 433.054C443.587 432.492 444.537 431.365 445.576 431.499C445.982 431.551 446.372 431.617 446.728 431.713C459.717 435.3 471.061 441.3 480.814 449.289C509.735 472.431 525.602 503.698 533.601 539.947C540.128 570.373 540.596 602.093 535.606 634.755ZM469.952 -4.02885C470.001 -4.31078 470.38 -4.68214 470.68 -4.66754C478.739 -4.27489 507.334 5.48483 518.833 32.0032C526.021 48.6809 519.272 68.2596 519.601 90.7058C519.852 107.527 528.378 118.326 534.773 125.975C535.642 127.014 535.088 128.797 533.723 128.611C507.614 124.188 488.412 111.884 479.064 88.6842C472.057 71.4689 477.16 54.3039 479.6 31.0676C481.936 9.67625 472.42 -0.0777785 470.352 -3.36982C470.18 -3.64238 469.899 -3.72012 469.952 -4.02885ZM851.255 53.3047C850.81 50.8898 853.544 51.0605 855.058 53.065C869.526 72.225 875.733 93.6733 870.391 121.3C861.262 168.365 874.794 191.912 880.059 201.813C880.345 202.352 879.68 203.083 879.246 202.641C866.496 189.443 854.473 175.782 845.914 159.394C829.091 126.915 843.437 95.8309 849.393 78.0902C852.281 69.4886 852.65 61.452 851.255 53.3047Z" fill="#FFDB66" fill-opacity="0.18"/>
</g>
<path d="M901.862 411.223C898.572 408.085 895.683 405.918 893.242 404.759C890.859 403.626 888.426 403.254 886.605 404.617C884.901 405.893 884.372 408.264 884.433 410.929C884.497 413.693 885.205 417.247 886.537 421.478C892.861 441.57 895.079 471.557 875.968 512.302C869.425 526.198 861.38 539.285 848.008 549.241C830.981 561.835 814.113 561.956 801.014 555.257C787.822 548.51 778.226 534.731 776.125 519.147L776.125 519.144L900.799 412.249M901.862 411.223C901.863 411.224 901.865 411.226 901.866 411.227L900.799 412.249M901.862 411.223C901.861 411.222 901.859 411.22 901.858 411.219L900.799 412.249M901.862 411.223C940.051 447.107 972.441 554.182 893.84 660.484C875.857 684.806 860.172 700.131 844.267 714.852C842.151 716.81 840.032 718.757 837.904 720.712C824.044 733.447 809.792 746.542 793.42 765.514L793.419 765.515C734.527 833.647 734.841 877.998 752.326 905.816M900.799 412.249C938.379 447.556 970.812 553.82 892.582 659.619C872.291 687.061 854.947 702.997 836.833 719.641C822.971 732.376 808.658 745.527 792.228 764.566C733.171 832.889 733.033 877.932 751.021 906.547M752.326 905.816C752.326 905.815 752.325 905.814 752.325 905.813L751.021 906.547M752.326 905.816C756.943 913.097 762.647 919.355 769.901 924.387L769.927 924.405L769.951 924.423L769.982 924.446C770.748 925.023 771.592 925.658 772.36 926.381C773.038 927.019 773.269 928.057 772.727 928.909C772.359 929.487 771.659 929.97 770.766 929.954C769.469 929.932 768.124 929.901 766.689 929.786L766.678 929.785L766.668 929.784C696.103 923.172 627.118 880.833 587.623 832.478L587.623 832.478C532.343 764.777 547.058 684.709 564.145 606.006C564.88 602.619 565.62 599.234 566.359 595.853C574.23 559.847 582.017 524.219 583.417 490.06C584.946 452.733 578.835 417.304 556.933 385.237C553.857 380.744 550.434 376.587 546.948 372.356C544.948 369.927 542.927 367.474 540.941 364.918L540.915 364.885L540.891 364.851C540.221 363.884 540 362.659 540.545 361.627C541.135 360.506 542.399 360.033 543.723 360.271C548.783 361.178 557.649 363.608 567.176 367.077C576.703 370.545 587.008 375.093 594.899 380.274C617.665 395.092 630.76 416.51 633.057 444.236L633.058 444.246C633.771 453.651 633.228 463.085 632.711 472.074C632.521 475.38 632.335 478.626 632.215 481.789C631.766 493.663 632.257 504.394 636.709 513.429L636.713 513.438C640.723 521.718 648.317 530.371 658.23 534.277C668.011 538.131 680.349 537.483 694.262 526.667M752.326 905.816L694.262 526.667M751.021 906.547C755.732 913.979 761.575 920.397 769.024 925.564L751.021 906.547ZM694.262 526.667C704.611 518.583 717.275 500.713 726.316 476.892C735.341 453.112 740.692 423.559 736.577 392.21C732.161 358.555 715.837 325.904 694.623 299.21C673.4 272.502 647.385 251.884 623.732 242.195L623.71 242.186L623.688 242.177C623.225 241.97 622.689 241.676 622.223 241.419L622.219 241.416L694.262 526.667ZM623.373 238.735C623.374 238.736 623.374 238.736 623.375 238.736L623.373 238.736L623.348 238.792L623.373 238.735ZM932.943 271.928L932.942 271.927C918.785 258.503 904.897 248.386 891.997 238.989C890.329 237.774 888.677 236.571 887.043 235.374C872.753 224.905 859.858 214.938 849.115 201.647L849.108 201.639C831.887 180.612 826.277 164.659 823.224 155.977C822.678 154.423 822.213 153.103 821.779 152.027C821.351 150.969 820.209 150.44 819.216 150.533C818.239 150.624 817.683 151.325 817.501 151.924C815.811 157.484 814.171 169.459 814.016 174.112L814.015 174.119C813.088 207.558 826.679 229.284 841.657 247.594C844.863 251.513 848.139 255.283 851.34 258.968C851.867 259.574 852.391 260.177 852.912 260.778C856.615 265.047 860.187 269.217 863.449 273.437C869.973 281.876 875.198 290.44 877.67 300.196C879.851 308.837 878.769 315.023 876.128 318.978C873.504 322.908 869.205 324.849 864.4 324.786L864.385 324.785L864.37 324.786C859.544 324.812 855.037 325.054 851.203 325.619C847.406 326.178 844.11 327.076 841.829 328.513C840.671 329.242 839.716 330.147 839.12 331.27C838.515 332.412 838.327 333.689 838.564 335.061C839.021 337.716 841.054 340.681 844.542 344.022C850.537 349.765 858.563 355.071 869.112 358.857C903.859 371.37 927.92 394.152 942.745 425.859L942.745 425.86C958.137 458.723 960.702 489.271 961.973 504.408C962.159 506.633 962.318 508.525 962.486 510.043L964.008 509.927L962.486 510.043C962.613 511.197 963.682 511.923 964.744 511.863C965.472 511.822 966.212 511.414 966.517 510.631C967.744 507.481 970.085 498.735 972.317 489.625C974.557 480.484 976.725 470.812 977.601 465.733C983.956 430.303 983.799 392.347 976.571 358.023C969.346 323.715 955.028 292.91 932.943 271.928ZM442.7 383.437L442.704 383.439C477.528 399.487 504.964 419.765 527.083 456.778L527.087 456.785C543.172 483.381 552.27 512.881 553.214 545.797C553.215 546.076 553.237 546.365 553.27 546.649C553.483 548.458 554.676 549.948 556.242 550.39C557.05 550.618 557.981 550.554 558.757 550.013C559.519 549.482 559.917 548.642 560.044 547.723C560.085 547.428 560.115 547.112 560.14 546.841C560.149 546.746 560.157 546.656 560.166 546.574C560.201 546.225 560.237 545.966 560.291 545.757L560.294 545.746L560.296 545.734C587.291 433.575 519.209 342.74 445.826 313.274C419.021 302.456 406.516 285.01 403.369 266.735C400.205 248.364 406.465 228.948 417.645 214.31L417.653 214.3L417.661 214.29C418.04 213.773 418.417 213.132 418.719 212.546C419.014 211.971 418.918 211.4 418.758 211.019C418.6 210.645 418.342 210.341 418.067 210.123C417.377 209.579 416.263 209.448 415.473 210.16C404.162 220.344 392.816 233.544 384.433 247.641C370.122 271.65 364.546 295.9 372.37 319.819L372.371 319.823C384.458 356.405 418.872 372.378 441.471 382.867C441.884 383.059 442.294 383.249 442.7 383.437ZM673.66 176.968L673.657 176.967C629.94 149.893 591.858 150.202 560.84 153.197C556.383 153.627 552.094 154.109 547.966 154.573C537.672 155.731 528.382 156.775 519.993 156.619C508.343 156.403 498.799 153.863 491.177 146.234C483.883 138.82 477.654 131.059 474.27 121.356C474.094 120.746 473.627 120.306 473.07 120.109C472.569 119.931 472.091 119.976 471.761 120.055C471.177 120.196 470.299 120.657 470.046 121.612C469.972 121.893 469.914 122.234 469.947 122.626L469.947 122.632C470.068 124.026 470.147 125.468 470.229 126.97C470.486 131.664 470.774 136.936 472.473 143.101C474.733 151.305 479.469 161.111 489.793 173.788C526.156 218.557 576.205 215.52 620.666 212.258L620.668 212.258C622.258 212.138 623.846 212.018 625.433 211.897C641.009 210.717 656.448 209.546 671.772 209.249L671.779 209.248C687.489 208.868 698.544 211.217 706.24 213.806C710.093 215.102 713.124 216.464 715.506 217.598C716.015 217.84 716.51 218.08 716.981 218.307C717.585 218.6 718.149 218.872 718.645 219.104C719.535 219.52 720.37 219.882 721.107 220.094C721.848 220.309 722.55 220.079 723.004 219.673C723.711 219.039 723.882 217.915 723.156 217.074C717.06 210.013 695.967 190.837 673.66 176.968ZM470.365 187.143L471.895 187.132L470.365 187.144C471.646 223.122 484.912 252.519 519.416 277.657L519.42 277.659C549.842 299.688 579.32 305.052 610.213 310.673C616.439 311.806 622.723 312.95 629.084 314.242C645.031 317.585 655.265 322.392 663.916 329.828C672.636 337.325 679.829 347.555 689.588 361.989C690.215 362.915 691.522 363.229 692.496 362.687L691.7 361.417L692.496 362.687C693.326 362.225 693.498 361.357 693.382 360.76C693.3 360.334 693.268 359.955 693.23 359.502L693.221 359.399L693.198 359.299C689.372 342.777 683.29 329.634 674.231 317.682C665.188 305.75 653.222 295.062 637.717 283.405L637.714 283.403C606.657 260.163 581.361 255.427 555.95 250.67C552.461 250.016 548.969 249.363 545.46 248.661C512.307 241.977 498.074 220.897 476.476 188.907C475.803 187.91 475.122 186.902 474.434 185.884C473.865 185.042 472.605 184.534 471.498 185.178C470.885 185.535 470.333 186.234 470.365 187.143ZM491.39 577.044L491.39 577.046C501.32 607.54 520.525 627.38 530.182 636.957C532.44 639.198 536.687 638.264 537.124 634.988C542.133 602.185 541.667 570.298 535.101 539.689L535.099 539.681C527.052 503.214 511.052 471.605 481.786 448.183C471.865 440.058 460.323 433.954 447.117 430.308L447.109 430.306C446.652 430.182 446.18 430.105 445.741 430.049C444.613 429.904 443.601 430.424 443.059 431.13C442.778 431.496 442.535 432.028 442.599 432.658C442.668 433.343 443.076 433.904 443.639 434.264C443.672 434.285 443.683 434.293 443.69 434.297C443.693 434.3 443.696 434.302 443.703 434.307C445.792 435.909 447.932 437.433 450.042 438.936C450.398 439.189 450.753 439.442 451.107 439.695C453.57 441.452 455.983 443.201 458.291 445.077C472.318 456.501 481.642 470.692 483.336 489.538C484.248 500.006 484.401 509.954 484.55 519.705C484.624 524.528 484.697 529.303 484.861 534.069C485.355 548.408 486.675 562.514 491.39 577.044ZM520.247 31.4765L520.245 31.4734C514.34 17.8563 504.055 8.56549 494.261 2.63996C484.516 -3.25567 475.092 -5.91604 470.718 -6.12914C469.949 -6.16652 469.396 -5.75586 469.149 -5.53027C468.877 -5.28184 468.537 -4.85753 468.441 -4.30269C468.389 -3.99883 468.41 -3.67314 468.536 -3.35184C468.654 -3.05232 468.829 -2.8446 468.932 -2.73365C468.983 -2.67826 469.031 -2.63102 469.057 -2.60604C469.068 -2.59547 469.076 -2.5877 469.082 -2.58158C469.377 -2.11857 469.759 -1.59267 470.202 -0.984243C471.566 0.892195 473.501 3.55404 475.211 7.58114C477.46 12.8794 479.219 20.4221 478.077 30.878L478.077 30.8837C477.532 36.0737 476.853 40.9594 476.204 45.6337C476.13 46.1661 476.057 46.6958 475.984 47.2229C475.272 52.3663 474.618 57.268 474.262 61.9905C473.549 71.4449 474.018 80.2844 477.637 89.1786C487.228 112.983 506.977 125.559 533.495 130.052L533.521 130.056L533.546 130.059C535.131 130.275 536.167 129.276 536.534 128.264C536.886 127.295 536.767 126.046 535.96 125.08C529.604 117.479 521.375 107.02 521.132 90.7237C521.018 82.9376 521.76 75.5523 522.475 68.4234C522.784 65.3505 523.088 62.3252 523.316 59.336C524.067 49.5095 523.986 40.1534 520.247 31.4765ZM871.897 121.603L871.897 121.602C877.316 93.5791 871.008 71.7192 856.291 52.2292C855.325 50.9498 853.825 50.0488 852.365 50.0642C851.586 50.0723 850.743 50.3589 850.193 51.0981C849.667 51.8059 849.594 52.6825 849.746 53.5137C851.103 61.4448 850.743 69.2444 847.934 77.6101C847.33 79.4105 846.633 81.3611 845.887 83.4479C839.373 101.672 829.146 130.285 844.545 160.015L844.547 160.019C853.21 176.607 865.36 190.397 878.133 203.618L878.143 203.629C878.58 204.072 879.195 204.304 879.834 204.225C880.398 204.155 880.812 203.864 881.07 203.593C881.548 203.088 881.93 202.136 881.42 201.177C881.279 200.912 881.132 200.637 880.98 200.353C878.302 195.341 874.025 187.338 871.325 175.224C868.47 162.42 867.366 144.962 871.897 121.603ZM683.365 864.032C683.292 864.429 683.03 864.693 682.613 864.816C682.164 864.949 681.579 864.892 681.076 864.578C674.779 860.645 668.719 856.49 662.844 852.117C657.702 848.29 655.608 842.418 656.28 838.026C656.614 835.847 657.604 834.144 659.095 833.152C660.56 832.176 662.736 831.739 665.798 832.516C677.322 835.44 686.515 846.708 683.365 864.032Z" stroke="url(#paint2_linear_0_1)" stroke-width="3"/>
</g>
</g>
<g id="Ellipse 45" filter="url(#filter9_f_0_1)">
<path d="M-154.249 1795.37C-156.42 2033.34 357.757 1897.22 604.349 1899.19C850.94 1901.17 793.957 1899.07 796.128 1661.1C798.3 1423.13 900.59 701.845 653.999 699.87C407.407 697.896 766.502 1403.37 -154.249 1795.37Z" fill="#421212"/>
</g>
</g>
<g id="Rectangle 4318" filter="url(#filter10_di_0_1)">
<path d="M796.901 -566.209C132.099 -393.414 -202.939 -250.365 -919.5 -636.5L-995.164 -481.498C-150.724 200.146 550.187 312.544 1100 94.2744L796.901 -566.209Z" fill="#890303" fill-opacity="0.2" shape-rendering="crispEdges"/>
<path d="M1093.25 91.5624L794.104 -560.315C739.348 -546.065 686.802 -532.015 636.07 -518.45C381.06 -450.264 171.887 -394.335 -41.7126 -386.759C-298.142 -377.664 -560.769 -438.202 -917.288 -629.633L-988.922 -482.887C-149.201 193.842 547.122 306.06 1093.25 91.5624Z" stroke="url(#paint3_linear_0_1)" stroke-width="10" shape-rendering="crispEdges"/>
</g>
<g id="Group 37145">
<g id="SE CARD">
<g id="Rectangle 4299">
<g filter="url(#filter11_i_0_1)">
<rect x="-71" y="2.50391" width="371" height="500" rx="10" fill="url(#paint4_linear_0_1)"/>
</g>
<rect x="-73.5" y="0.00390625" width="376" height="505" rx="12.5" stroke="url(#paint5_linear_0_1)" stroke-width="5"/>
</g>
<g id="Group 37142">
<g id="Polygon 14" filter="url(#filter12_i_0_1)">
<path d="M-84.0489 515.003L57.4007 503.356L-69.5508 500.503L-73.4968 229.504L-84.0489 515.003Z" fill="#C2821C"/>
</g>
<g id="Polygon 15" filter="url(#filter13_i_0_1)">
<path d="M310.408 515.003L168.959 503.356L289.954 503.356C296.047 503.356 300.979 498.403 300.954 492.31L299.856 229.504L310.408 515.003Z" fill="#C2821C"/>
</g>
<g id="Polygon 12" filter="url(#filter14_i_0_1)">
<path d="M-85.9977 -13.4965L144 3.00379L-61.1291 3.00379C-66.6013 3.00378 -71.0572 7.40211 -71.1283 12.8738L-73.9963 233.504L-76.9961 150.003L-85.9977 -13.4965Z" fill="#C2821C"/>
</g>
<g id="Polygon 13" filter="url(#filter15_i_0_1)">
<path d="M315.499 -13.1861L106.498 3.00393L289.003 3.00393C295.078 3.00393 300.003 7.9288 300.003 14.0039L300.003 158.504L299.997 277.504L315.499 -13.1861Z" fill="#C2821C"/>
</g>
<g id="Line 60" filter="url(#filter16_d_0_1)">
<path d="M-61 -11.4961C78.6929 1.69303 155.218 0.284335 290.001 -11.4961" stroke="url(#paint6_linear_0_1)" stroke-width="6"/>
</g>
</g>
<g id="rap battle" filter="url(#filter17_d_0_1)">
<path d="M93.6195 254.476L88.4236 245.625L85.6397 245.648L85.7158 254.544L82.0679 254.575L81.8778 232.336L89.5575 232.27C91.2641 232.256 92.7066 232.542 93.885 233.129C95.0848 233.716 95.9769 234.509 96.5614 235.507C97.1673 236.504 97.4756 237.622 97.4861 238.859C97.4985 240.309 97.0832 241.636 96.2401 242.838C95.4181 244.018 94.1344 244.829 92.3887 245.271L97.9713 254.439L93.6195 254.476ZM85.6148 242.736L89.6467 242.702C91.012 242.69 92.033 242.34 92.7098 241.652C93.408 240.963 93.7521 240.043 93.7423 238.891C93.7324 237.739 93.3834 236.846 92.6953 236.212C92.007 235.556 90.9696 235.234 89.583 235.246L85.5511 235.281L85.6148 242.736ZM120.454 249.703L111.143 249.782L109.582 254.34L105.774 254.373L113.551 232.033L117.775 231.997L125.933 254.2L122.093 254.233L120.454 249.703ZM119.405 246.736L115.701 236.431L112.141 246.798L119.405 246.736ZM149.615 238.381C149.625 239.512 149.367 240.581 148.843 241.588C148.318 242.595 147.472 243.424 146.304 244.074C145.136 244.702 143.634 245.025 141.8 245.04L137.768 245.075L137.845 254.098L134.197 254.13L134.007 231.89L141.687 231.825C143.393 231.81 144.836 232.097 146.014 232.684C147.214 233.25 148.106 234.031 148.691 235.029C149.296 236.027 149.605 237.144 149.615 238.381ZM141.774 242.064C143.161 242.053 144.193 241.734 144.87 241.11C145.548 240.464 145.881 239.565 145.871 238.413C145.851 235.981 144.464 234.777 141.712 234.801L137.68 234.835L137.743 242.099L141.774 242.064ZM63.0696 291.315C64.2661 291.518 65.2847 292.139 66.1256 293.177C66.9665 294.215 67.3926 295.395 67.4039 296.718C67.4136 297.849 67.1237 298.875 66.5342 299.798C65.9659 300.698 65.1294 301.42 64.0247 301.963C62.9197 302.485 61.6313 302.752 60.1594 302.764L51.2637 302.84L51.0736 280.601L59.5533 280.529C61.0679 280.516 62.3714 280.76 63.4637 281.263C64.556 281.766 65.3833 282.452 65.9454 283.322C66.5073 284.171 66.7929 285.128 66.802 286.195C66.8129 287.475 66.4807 288.544 65.8054 289.403C65.13 290.263 64.2181 290.9 63.0696 291.315ZM54.8013 289.914L59.3132 289.875C60.5078 289.865 61.4335 289.59 62.0902 289.051C62.7681 288.491 63.1027 287.698 63.0939 286.675C63.0854 285.672 62.7374 284.896 62.05 284.347C61.3838 283.777 60.4534 283.497 59.2587 283.507L54.7469 283.546L54.8013 289.914ZM59.8139 299.791C61.0512 299.78 62.0193 299.474 62.7182 298.87C63.417 298.267 63.7619 297.432 63.7528 296.365C63.7435 295.277 63.3628 294.417 62.6107 293.783C61.8586 293.149 60.8639 292.838 59.6266 292.848L54.8268 292.889L54.8861 299.833L59.8139 299.791ZM89.5877 297.968L80.276 298.048L78.7149 302.606L74.9071 302.638L82.6844 280.299L86.9083 280.263L95.0663 302.466L91.2265 302.499L89.5877 297.968ZM88.5383 295.001L84.8341 284.697L81.2746 295.063L88.5383 295.001ZM117.508 280.033L117.533 283.009L111.614 283.06L111.778 302.323L108.13 302.354L107.966 283.091L102.014 283.142L101.988 280.166L117.508 280.033ZM140.37 279.838L140.395 282.814L134.475 282.864L134.64 302.128L130.992 302.159L130.827 282.895L124.876 282.946L124.85 279.97L140.37 279.838ZM152.677 299.029L160.196 298.965L160.221 301.909L149.054 302.004L148.864 279.765L152.512 279.734L152.677 299.029ZM171.555 282.515L171.611 289.043L179.29 288.977L179.316 291.953L171.636 292.019L171.694 298.835L180.334 298.761L180.359 301.737L168.072 301.842L167.882 279.571L180.169 279.466L180.195 282.441L171.555 282.515Z" fill="url(#paint7_linear_0_1)"/>
</g>
</g>
</g>
<g id="Vector_3" filter="url(#filter18_d_0_1)">
<path d="M74.7235 173.149L83.138 179.709L74.5632 200.615C73.5447 203.255 70.6693 204.025 68.4673 202.248C66.2653 200.471 65.208 196.755 66.3045 194.176L74.7235 173.149ZM129.543 60.5207L126.645 49.7076L103.307 107.298L54.2998 69.0925L57.1972 79.9057L100.672 113.798L86.6505 148.651C78.1506 144.073 68.9233 147.362 65.0273 156.975L98.1401 182.79C102.036 173.176 99.2649 160.533 92.084 152.827L129.543 60.5207ZM178.791 164.036L160.986 150.035L156.979 159.923L174.858 173.741C177.06 175.518 179.935 174.747 180.954 172.108C181.972 169.468 181.03 165.721 178.791 164.036ZM138.408 134.783L114.37 115.923L111.736 122.423L135.848 141.1C133.425 151.38 137.346 163.715 145.527 170.092L161.296 131.18C153.116 124.802 143.48 126.568 138.408 134.783Z" fill="url(#paint8_linear_0_1)"/>
</g>
</g>
<defs>
<filter id="filter0_f_0_1" x="-841.867" y="-1253.92" width="2128.78" height="1745.19" filterUnits="userSpaceOnUse" color-interpolation-filters="sRGB">
<feFlood flood-opacity="0" result="BackgroundImageFix"/>
<feBlend mode="normal" in="SourceGraphic" in2="BackgroundImageFix" result="shape"/>
<feGaussianBlur stdDeviation="250" result="effect1_foregroundBlur_0_1"/>
</filter>
<filter id="filter1_f_0_1" x="-1615.09" y="-18.2959" width="2529.63" height="1841.67" filterUnits="userSpaceOnUse" color-interpolation-filters="sRGB">
<feFlood flood-opacity="0" result="BackgroundImageFix"/>
<feBlend mode="normal" in="SourceGraphic" in2="BackgroundImageFix" result="shape"/>
<feGaussianBlur stdDeviation="250" result="effect1_foregroundBlur_0_1"/>
</filter>
<filter id="filter2_f_0_1" x="-1405.58" y="-329.35" width="2781.84" height="1868.18" filterUnits="userSpaceOnUse" color-interpolation-filters="sRGB">
<feFlood flood-opacity="0" result="BackgroundImageFix"/>
<feBlend mode="normal" in="SourceGraphic" in2="BackgroundImageFix" result="shape"/>
<feGaussianBlur stdDeviation="251.5" result="effect1_foregroundBlur_0_1"/>
</filter>
<filter id="filter3_f_0_1" x="-1394.8" y="-57.8496" width="2445.22" height="1169.56" filterUnits="userSpaceOnUse" color-interpolation-filters="sRGB">
<feFlood flood-opacity="0" result="BackgroundImageFix"/>
<feBlend mode="normal" in="SourceGraphic" in2="BackgroundImageFix" result="shape"/>
<feGaussianBlur stdDeviation="250" result="effect1_foregroundBlur_0_1"/>
</filter>
<filter id="filter4_f_0_1" x="-905.617" y="178.569" width="1286.3" height="870.96" filterUnits="userSpaceOnUse" color-interpolation-filters="sRGB">
<feFlood flood-opacity="0" result="BackgroundImageFix"/>
<feBlend mode="normal" in="SourceGraphic" in2="BackgroundImageFix" result="shape"/>
<feGaussianBlur stdDeviation="150" result="effect1_foregroundBlur_0_1"/>
</filter>
<filter id="filter5_f_0_1" x="-1396.05" y="-1179.56" width="1867.51" height="2236.31" filterUnits="userSpaceOnUse" color-interpolation-filters="sRGB">
<feFlood flood-opacity="0" result="BackgroundImageFix"/>
<feBlend mode="normal" in="SourceGraphic" in2="BackgroundImageFix" result="shape"/>
<feGaussianBlur stdDeviation="250" result="effect1_foregroundBlur_0_1"/>
</filter>
<filter id="filter9_f_0_1" x="-654.258" y="199.866" width="1973.23" height="2236.31" filterUnits="userSpaceOnUse" color-interpolation-filters="sRGB">
<feFlood flood-opacity="0" result="BackgroundImageFix"/>
<feBlend mode="normal" in="SourceGraphic" in2="BackgroundImageFix" result="shape"/>
<feGaussianBlur stdDeviation="250" result="effect1_foregroundBlur_0_1"/>
</filter>
<filter id="filter10_di_0_1" x="-1095.16" y="-697.5" width="2295.16" height="1031.5" filterUnits="userSpaceOnUse" color-interpolation-filters="sRGB">
<feFlood flood-opacity="0" result="BackgroundImageFix"/>
<feColorMatrix in="SourceAlpha" type="matrix" values="0 0 0 0 0 0 0 0 0 0 0 0 0 0 0 0 0 0 127 0" result="hardAlpha"/>
<feOffset dy="39"/>
<feGaussianBlur stdDeviation="50"/>
<feComposite in2="hardAlpha" operator="out"/>
<feColorMatrix type="matrix" values="0 0 0 0 0.392157 0 0 0 0 0.0627451 0 0 0 0 0.0627451 0 0 0 1 0"/>
<feBlend mode="normal" in2="BackgroundImageFix" result="effect1_dropShadow_0_1"/>
<feBlend mode="normal" in="SourceGraphic" in2="effect1_dropShadow_0_1" result="shape"/>
<feColorMatrix in="SourceAlpha" type="matrix" values="0 0 0 0 0 0 0 0 0 0 0 0 0 0 0 0 0 0 127 0" result="hardAlpha"/>
<feOffset dy="-38"/>
<feGaussianBlur stdDeviation="41.4"/>
<feComposite in2="hardAlpha" operator="arithmetic" k2="-1" k3="1"/>
<feColorMatrix type="matrix" values="0 0 0 0 0 0 0 0 0 0 0 0 0 0 0 0 0 0 0.25 0"/>
<feBlend mode="normal" in2="shape" result="effect2_innerShadow_0_1"/>
</filter>
<filter id="filter11_i_0_1" x="-76" y="-2.49609" width="381" height="676.2" filterUnits="userSpaceOnUse" color-interpolation-filters="sRGB">
<feFlood flood-opacity="0" result="BackgroundImageFix"/>
<feBlend mode="normal" in="SourceGraphic" in2="BackgroundImageFix" result="shape"/>
<feColorMatrix in="SourceAlpha" type="matrix" values="0 0 0 0 0 0 0 0 0 0 0 0 0 0 0 0 0 0 127 0" result="hardAlpha"/>
<feOffset dy="204"/>
<feGaussianBlur stdDeviation="83.1"/>
<feComposite in2="hardAlpha" operator="arithmetic" k2="-1" k3="1"/>
<feColorMatrix type="matrix" values="0 0 0 0 0 0 0 0 0 0 0 0 0 0 0 0 0 0 0.25 0"/>
<feBlend mode="normal" in2="shape" result="effect1_innerShadow_0_1"/>
</filter>
<filter id="filter12_i_0_1" x="-84.0469" y="229.504" width="141.445" height="289.499" filterUnits="userSpaceOnUse" color-interpolation-filters="sRGB">
<feFlood flood-opacity="0" result="BackgroundImageFix"/>
<feBlend mode="normal" in="SourceGraphic" in2="BackgroundImageFix" result="shape"/>
<feColorMatrix in="SourceAlpha" type="matrix" values="0 0 0 0 0 0 0 0 0 0 0 0 0 0 0 0 0 0 127 0" result="hardAlpha"/>
<feOffset dy="4"/>
<feGaussianBlur stdDeviation="2"/>
<feComposite in2="hardAlpha" operator="arithmetic" k2="-1" k3="1"/>
<feColorMatrix type="matrix" values="0 0 0 0 0 0 0 0 0 0 0 0 0 0 0 0 0 0 0.25 0"/>
<feBlend mode="normal" in2="shape" result="effect1_innerShadow_0_1"/>
</filter>
<filter id="filter13_i_0_1" x="168.961" y="229.504" width="141.445" height="289.499" filterUnits="userSpaceOnUse" color-interpolation-filters="sRGB">
<feFlood flood-opacity="0" result="BackgroundImageFix"/>
<feBlend mode="normal" in="SourceGraphic" in2="BackgroundImageFix" result="shape"/>
<feColorMatrix in="SourceAlpha" type="matrix" values="0 0 0 0 0 0 0 0 0 0 0 0 0 0 0 0 0 0 127 0" result="hardAlpha"/>
<feOffset dy="4"/>
<feGaussianBlur stdDeviation="2"/>
<feComposite in2="hardAlpha" operator="arithmetic" k2="-1" k3="1"/>
<feColorMatrix type="matrix" values="0 0 0 0 0 0 0 0 0 0 0 0 0 0 0 0 0 0 0.25 0"/>
<feBlend mode="normal" in2="shape" result="effect1_innerShadow_0_1"/>
</filter>
<filter id="filter14_i_0_1" x="-86" y="-13.4961" width="230" height="251" filterUnits="userSpaceOnUse" color-interpolation-filters="sRGB">
<feFlood flood-opacity="0" result="BackgroundImageFix"/>
<feBlend mode="normal" in="SourceGraphic" in2="BackgroundImageFix" result="shape"/>
<feColorMatrix in="SourceAlpha" type="matrix" values="0 0 0 0 0 0 0 0 0 0 0 0 0 0 0 0 0 0 127 0" result="hardAlpha"/>
<feOffset dy="4"/>
<feGaussianBlur stdDeviation="2"/>
<feComposite in2="hardAlpha" operator="arithmetic" k2="-1" k3="1"/>
<feColorMatrix type="matrix" values="0 0 0 0 0 0 0 0 0 0 0 0 0 0 0 0 0 0 0.25 0"/>
<feBlend mode="normal" in2="shape" result="effect1_innerShadow_0_1"/>
</filter>
<filter id="filter15_i_0_1" x="106.5" y="-13.1865" width="209" height="294.69" filterUnits="userSpaceOnUse" color-interpolation-filters="sRGB">
<feFlood flood-opacity="0" result="BackgroundImageFix"/>
<feBlend mode="normal" in="SourceGraphic" in2="BackgroundImageFix" result="shape"/>
<feColorMatrix in="SourceAlpha" type="matrix" values="0 0 0 0 0 0 0 0 0 0 0 0 0 0 0 0 0 0 127 0" result="hardAlpha"/>
<feOffset dy="4"/>
<feGaussianBlur stdDeviation="2"/>
<feComposite in2="hardAlpha" operator="arithmetic" k2="-1" k3="1"/>
<feColorMatrix type="matrix" values="0 0 0 0 0 0 0 0 0 0 0 0 0 0 0 0 0 0 0.25 0"/>
<feBlend mode="normal" in2="shape" result="effect1_innerShadow_0_1"/>
</filter>
<filter id="filter16_d_0_1" x="-76.6812" y="-35.8844" width="372.347" height="36.7594" filterUnits="userSpaceOnUse" color-interpolation-filters="sRGB">
<feFlood flood-opacity="0" result="BackgroundImageFix"/>
<feColorMatrix in="SourceAlpha" type="matrix" values="0 0 0 0 0 0 0 0 0 0 0 0 0 0 0 0 0 0 127 0" result="hardAlpha"/>
<feOffset dx="-5" dy="-11"/>
<feGaussianBlur stdDeviation="5.2"/>
<feComposite in2="hardAlpha" operator="out"/>
<feColorMatrix type="matrix" values="0 0 0 0 0 0 0 0 0 0 0 0 0 0 0 0 0 0 0.25 0"/>
<feBlend mode="normal" in2="BackgroundImageFix" result="effect1_dropShadow_0_1"/>
<feBlend mode="normal" in="SourceGraphic" in2="effect1_dropShadow_0_1" result="shape"/>
</filter>
<filter id="filter17_d_0_1" x="40.9641" y="228.768" width="149.095" height="90.7721" filterUnits="userSpaceOnUse" color-interpolation-filters="sRGB">
<feFlood flood-opacity="0" result="BackgroundImageFix"/>
<feColorMatrix in="SourceAlpha" type="matrix" values="0 0 0 0 0 0 0 0 0 0 0 0 0 0 0 0 0 0 127 0" result="hardAlpha"/>
<feOffset dy="7"/>
<feGaussianBlur stdDeviation="4.85"/>
<feComposite in2="hardAlpha" operator="out"/>
<feColorMatrix type="matrix" values="0 0 0 0 0 0 0 0 0 0 0 0 0 0 0 0 0 0 0.78 0"/>
<feBlend mode="normal" in2="BackgroundImageFix" result="effect1_dropShadow_0_1"/>
<feBlend mode="normal" in="SourceGraphic" in2="effect1_dropShadow_0_1" result="shape"/>
</filter>
<filter id="filter18_d_0_1" x="0.596874" y="0.00800705" width="234.463" height="260.901" filterUnits="userSpaceOnUse" color-interpolation-filters="sRGB">
<feFlood flood-opacity="0" result="BackgroundImageFix"/>
<feColorMatrix in="SourceAlpha" type="matrix" values="0 0 0 0 0 0 0 0 0 0 0 0 0 0 0 0 0 0 127 0" result="hardAlpha"/>
<feOffset dy="4"/>
<feGaussianBlur stdDeviation="26.85"/>
<feComposite in2="hardAlpha" operator="out"/>
<feColorMatrix type="matrix" values="0 0 0 0 0 0 0 0 0 0 0 0 0 0 0 0 0 0 1 0"/>
<feBlend mode="normal" in2="BackgroundImageFix" result="effect1_dropShadow_0_1"/>
<feBlend mode="normal" in="SourceGraphic" in2="effect1_dropShadow_0_1" result="shape"/>
</filter>
<linearGradient id="paint0_linear_0_1" x1="0" y1="78.2965" x2="1444.01" y2="78.2965" gradientUnits="userSpaceOnUse">
<stop stop-color="#54100D"/>
<stop offset="0.104891" stop-color="#511B14"/>
<stop offset="0.170259" stop-color="#390A09"/>
<stop offset="0.216706" stop-color="#2F0B0B"/>
<stop offset="0.269172" stop-color="#2D0909"/>
<stop offset="0.281214" stop-color="#2A0B0B"/>
<stop offset="0.314759" stop-color="#280D0D"/>
<stop offset="0.338332" stop-color="#290D0D"/>
<stop offset="0.365505" stop-color="#290F0F"/>
<stop offset="0.386148" stop-color="#2A1111"/>
<stop offset="0.422273" stop-color="#2A1010"/>
<stop offset="0.456677" stop-color="#2C1111"/>
<stop offset="0.495382" stop-color="#2D1313"/>
<stop offset="0.524626" stop-color="#301212"/>
<stop offset="0.55473" stop-color="#331212"/>
<stop offset="0.584834" stop-color="#371414"/>
<stop offset="0.616658" stop-color="#381313"/>
<stop offset="0.647623" stop-color="#3D1212"/>
<stop offset="0.677727" stop-color="#411111"/>
<stop offset="0.714711" stop-color="#451111"/>
<stop offset="0.744815" stop-color="#491010"/>
<stop offset="0.766318" stop-color="#4E0E0E"/>
<stop offset="0.796422" stop-color="#500E0E"/>
<stop offset="0.835127" stop-color="#560D0D"/>
<stop offset="0.866952" stop-color="#5C0B0B"/>
<stop offset="0.897056" stop-color="#5C0A0A"/>
<stop offset="0.92888" stop-color="#600A0A"/>
<stop offset="0.957264" stop-color="#610B0B"/>
<stop offset="0.977046" stop-color="#600A0A"/>
<stop offset="1" stop-color="#610B0B"/>
</linearGradient>
<linearGradient id="paint1_linear_0_1" x1="442.733" y1="-186.476" x2="528.958" y2="377.212" gradientUnits="userSpaceOnUse">
<stop offset="0.025" stop-color="#FFC363"/>
<stop offset="0.5" stop-color="#FFE8C2"/>
<stop offset="0.995" stop-color="#955E07"/>
</linearGradient>
<linearGradient id="paint2_linear_0_1" x1="483.686" y1="-28.3194" x2="616.327" y2="579.331" gradientUnits="userSpaceOnUse">
<stop offset="0.025" stop-color="#FFC363"/>
<stop offset="0.5" stop-color="#FFE8C2"/>
<stop offset="0.995" stop-color="#955E07"/>
</linearGradient>
<linearGradient id="paint3_linear_0_1" x1="-587.547" y1="76.8513" x2="650.266" y2="-120.995" gradientUnits="userSpaceOnUse">
<stop stop-color="#D38900"/>
<stop offset="0.5" stop-color="#FFDBA0"/>
<stop offset="1" stop-color="#C18923"/>
</linearGradient>
<linearGradient id="paint4_linear_0_1" x1="114.5" y1="2.50391" x2="114.5" y2="502.504" gradientUnits="userSpaceOnUse">
<stop stop-color="#5D2019"/>
<stop offset="1" stop-color="#2A0A0A"/>
</linearGradient>
<linearGradient id="paint5_linear_0_1" x1="114.5" y1="2.50391" x2="114.5" y2="502.504" gradientUnits="userSpaceOnUse">
<stop stop-color="#FBDA7A"/>
<stop offset="1" stop-color="#7C5114"/>
</linearGradient>
<linearGradient id="paint6_linear_0_1" x1="290.001" y1="-6.81058" x2="-61" y2="-6.81058" gradientUnits="userSpaceOnUse">
<stop stop-color="#FFDEA9"/>
<stop offset="0.431" stop-color="#F3A72E"/>
<stop offset="0.621" stop-color="#845408"/>
<stop offset="0.986" stop-color="#FFDEA9"/>
</linearGradient>
<linearGradient id="paint7_linear_0_1" x1="115.154" y1="243.292" x2="115.974" y2="339.288" gradientUnits="userSpaceOnUse">
<stop stop-color="#FFAE3D"/>
<stop offset="0.49" stop-color="#FFD188"/>
<stop offset="1" stop-color="#A6660D"/>
</linearGradient>
<linearGradient id="paint8_linear_0_1" x1="90.4726" y1="59.4001" x2="125.154" y2="188.834" gradientUnits="userSpaceOnUse">
<stop stop-color="#CA8920"/>
<stop offset="1" stop-color="#F9D7A1"/>
</linearGradient>
<clipPath id="clip0_0_1">
<rect width="1440" height="6713" fill="white" transform="translate(-889 -2478)"/>
</clipPath>
</defs>
</svg>
