<svg width="207" height="248" viewBox="0 0 207 248" fill="none" xmlns="http://www.w3.org/2000/svg">
<rect width="207" height="248" fill="#171E1E"/>
<g id="Antaragni" clip-path="url(#clip0_0_1)">
<rect width="1440" height="6713" transform="translate(-889 -1896)" fill="black"/>
<g id="background">
<g id="Ellipse 41" filter="url(#filter0_f_0_1)">
<path d="M720.39 525.105C720.921 590.401 206.34 569.135 -172.514 572.538C-551.367 575.941 -234.752 573.097 189.845 276.054C384.505 -74.1023 188.362 -168.507 567.216 -171.91C946.069 -175.314 719.859 459.809 720.39 525.105Z" fill="black"/>
</g>
<g id="Ellipse 43" filter="url(#filter1_f_0_1)">
<path d="M-575.171 179.752C-574.64 245.048 -261.285 79.7147 117.568 76.3114C496.422 72.9081 380.612 210.578 -48.7548 -78.7935C-249.081 -425.401 -6.33573 -79.1746 -385.189 -75.7713C-764.043 -72.3679 -575.702 114.456 -575.171 179.752Z" fill="black"/>
</g>
<g id="Ellipse 36" filter="url(#filter2_f_0_1)">
<path d="M-1332.52 -501.675C-1331.23 -343.223 219.172 -95.7392 416.33 -97.5103C613.489 -99.2814 -617.259 -349.637 -618.547 -508.089C-619.836 -666.541 -1017.35 -932.264 -1214.5 -930.493C-1411.66 -928.722 -1333.81 -660.127 -1332.52 -501.675Z" fill="#860000"/>
</g>
<path id="Ellipse 29" d="M-505.305 -948.346C133.576 -481.394 -595.931 -739.602 -707.723 -739.602C-819.515 -739.602 -910.141 -833.06 -910.141 -948.346C-910.141 -1063.63 -819.515 -1157.09 -707.723 -1157.09C-595.931 -1157.09 -4.00458 -739.602 -505.305 -948.346Z" fill="black"/>
<g id="Ellipse 33" filter="url(#filter4_f_0_1)">
<path d="M858.244 -440.287C859.533 -281.835 -686.62 -6.53396 -883.778 -4.76284C-1080.94 -2.99172 145.559 -275.422 144.27 -433.874C142.982 -592.325 536.111 -865.151 733.27 -866.922C930.428 -868.693 856.955 -598.739 858.244 -440.287Z" fill="#860000"/>
</g>
<g id="Ellipse 37" filter="url(#filter5_f_0_1)">
<path d="M96.1633 -451.975C96.7746 -376.812 85.3205 -271.105 -14.3632 -270.21C-114.047 -269.314 -388.212 -311.497 -388.823 -386.66C-389.435 -461.823 -668.271 -540.224 -568.587 -541.119C-468.903 -542.015 95.552 -527.138 96.1633 -451.975Z" fill="#5C2222"/>
</g>
<g id="Ellipse 40" filter="url(#filter6_f_0_1)">
<path d="M-28.5489 997.951C-26.6135 1235.92 -484.929 1099.79 -704.731 1101.77C-924.532 1103.74 -873.739 1101.64 -875.675 863.676C-877.61 625.708 -968.788 -95.5778 -748.986 -97.5523C-529.185 -99.5268 -849.267 605.943 -28.5489 997.951Z" fill="#421212"/>
</g>
<path id="Ellipse 42" d="M-1318.23 421.852C-1317.7 487.148 -1004.35 321.814 -625.494 318.411C-246.641 315.008 -362.45 452.678 -791.817 163.306C-992.144 -183.302 -749.398 162.925 -1128.25 166.328C-1507.11 169.732 -1318.76 356.556 -1318.23 421.852Z" fill="black"/>
<g id="Group 3653">
<g id="Vector">
<g>
<path d="M822.73 769.893C811.191 758.896 806.728 762.886 811.661 777.639C817.746 795.838 820.276 822.701 804.183 858.65C798.668 870.919 791.74 882.588 779.903 891.362C749.633 913.649 718.07 891.031 713.574 862.604C705.018 809.098 756.43 716.46 718.346 665.025C690.547 627.606 625.665 605.786 574.03 611.786C573.464 611.851 573.028 612.677 573.553 612.906C573.613 612.932 573.642 612.944 573.699 612.976C574.134 613.222 574.565 613.464 574.917 613.626C617.668 631.795 669.304 689.064 678.624 749.363C687.299 805.481 662.098 854.491 643.676 868.846C618.946 888.023 598.12 870.879 590.469 855.659C581.9 838.885 587.885 816.503 585.633 793.878C583.054 769.677 571.255 750.878 551.201 737.63C537.339 728.395 514.975 721.065 506.174 719.315C504.81 719.044 504.22 720.258 505.004 721.369C509.866 727.538 515.162 733.315 519.609 739.687C600.572 855.924 536.988 924.933 636.579 1045.5C672.279 1088.71 720.664 1227.12 782.687 1234.08C783.977 1234.2 724.925 1225.78 719.642 1224.91C719.402 1224.87 719.345 1224.7 719.467 1224.5C719.588 1224.3 719.541 1224.06 719.367 1223.89C718.725 1223.29 718.011 1222.74 717.297 1222.2C710.609 1217.51 705.313 1211.73 700.995 1205.07C684.501 1179.44 683.664 1139.57 734.36 1080.04C766.893 1041.78 790.146 1031.07 820.743 988.768C887.571 896.378 856.668 801.767 822.73 769.893ZM641.684 1166.6C641.409 1168.32 639.269 1168.87 637.732 1167.89C631.93 1164.21 626.343 1160.33 620.924 1156.25C611.038 1148.8 612.835 1133.53 624.817 1136.99C635.666 1140.12 644.16 1150.92 641.684 1166.6ZM847.208 647.075C886.569 684.441 900.022 755.984 890.351 818.229C889.036 827.091 883.556 852.16 881.585 857.55C881.52 857.726 881.354 857.83 881.157 857.837C880.894 857.847 880.665 857.676 880.631 857.426C879.236 847.032 877.801 816.072 861.281 782.149C847.363 753.524 825.351 732.688 794.029 720.901C784.822 717.448 777.793 712.727 772.52 707.682C760.348 696.036 771.77 692.938 788.773 693.158C798.086 693.454 805.569 685.876 801.226 670.061C791.394 634.362 742.165 616.068 742.376 557.739C742.413 553.708 743.595 543.259 744.933 538.482C744.984 538.3 745.128 538.154 745.325 538.14C745.66 538.117 746.02 538.301 746.147 538.601C748.787 544.811 752.912 560.835 771.561 583.347C791.353 607.54 818.487 619.861 847.208 647.075ZM418.124 735.741C397.894 726.052 366.848 711.638 355.407 679.086C348.149 658.242 352.416 637.236 364.436 616.398C371.467 604.18 381.117 592.778 390.801 584.022C390.948 583.889 391.167 583.899 391.326 584.025C391.501 584.163 391.631 584.398 391.536 584.59C391.301 585.065 391.015 585.564 390.741 585.945C371.297 611.928 369.766 655.635 418.384 676.008C483.22 703.047 544.871 783.951 523.563 882.16C523.472 882.543 523.447 882.978 523.416 883.422C523.226 886.137 520.136 885.32 519.992 882.594C519.99 882.557 519.989 882.521 519.988 882.484C518.444 853.103 509.712 826.615 494.819 802.607C474.322 769.188 449.417 750.613 418.124 735.741ZM454.395 528.539C483.423 557.517 538.855 510.054 616.451 558.94C636.353 571.525 655.288 588.774 660.702 594.994C660.84 595.153 660.819 595.374 660.665 595.513C660.564 595.603 660.427 595.64 660.293 595.599C655.99 594.286 644.136 584.964 616.067 585.125C601.115 585.139 586.065 586.092 570.926 586.955C531.651 589.121 488.287 590.883 455.748 551.292C437.162 528.735 438.599 516.903 437.439 506.386C437.422 506.232 437.437 506.088 437.47 505.939C437.576 505.469 438.476 505.215 438.594 505.687C441.886 514.627 447.726 521.786 454.395 528.539ZM439.187 563.577C439.172 563.321 439.331 563.084 439.558 562.953C439.803 562.813 440.108 562.909 440.269 563.142C461.029 593.241 474.233 613.704 505.247 620.513C531.114 626.153 555.429 628.769 586.874 652.514C614.664 673.595 629.584 690.779 636.964 719.843C637.007 720.241 637.049 720.64 637.148 721.096C637.179 721.241 637.129 721.4 636.996 721.472C636.763 721.598 636.427 721.52 636.276 721.301C618.458 695.47 609.584 683.936 580.92 677.417C547.082 669.934 516.377 667.283 483.856 643.487C453.222 620.94 441.064 595.09 439.187 563.577ZM504.981 960.917C504.803 962.618 502.528 963.244 501.265 961.995C492.603 953.431 475.331 935.712 465.989 908.77C457.158 883.22 460.16 859.271 457.076 831.444C455.133 814.322 446.367 801.294 433.505 790.76C429.272 787.3 424.698 784.314 420.355 780.955C420.303 780.915 420.265 780.89 420.209 780.854C419.431 780.353 420.264 779.359 421.184 779.497C421.531 779.548 421.865 779.612 422.172 779.7C433.718 783.088 443.863 788.586 452.646 795.818C478.678 816.78 493.356 844.722 501.192 876.946C507.603 903.99 508.692 932.081 504.981 960.917ZM433.398 394.31C433.428 394.052 433.771 393.724 434.043 393.743C441.189 394.234 466.62 403.346 477.332 426.996C484.034 441.879 478.491 459.103 479.261 478.981C479.842 493.919 487.642 503.632 493.458 510.512C494.216 511.409 493.719 512.954 492.539 512.771C469.388 508.428 452.169 497.221 443.42 476.528C436.866 461.172 441.007 446.058 442.667 425.526C444.278 406.572 435.615 397.785 433.751 394.861C433.603 394.63 433.367 394.575 433.398 394.31ZM771.335 451.291C770.895 449.168 773.275 449.303 774.626 451.061C787.853 468.282 793.817 487.394 789.681 511.804C782.621 553.332 795.078 574.401 799.936 583.249C800.193 583.717 799.613 584.349 799.233 583.964C787.693 572.071 776.785 559.78 768.878 545.13C753.33 516.1 765.337 488.814 770.219 473.205C772.586 465.637 772.741 458.527 771.335 451.291Z" fill="#300404"/>
</g>
<path d="M431.369 394.04C431.326 394.404 431.369 394.798 431.537 395.185C431.694 395.545 431.913 395.787 432.028 395.906C432.055 395.933 432.08 395.958 432.102 395.979C432.391 396.419 432.748 396.902 433.153 397.45C434.391 399.124 436.075 401.401 437.637 404.907C439.705 409.549 441.41 416.164 440.632 425.318L440.631 425.325C440.262 429.9 439.768 434.203 439.294 438.331C439.24 438.802 439.186 439.27 439.133 439.736C438.614 444.277 438.139 448.625 437.924 452.822C437.493 461.235 438.096 469.174 441.533 477.224C450.606 498.677 468.513 510.242 492.196 514.685L492.23 514.692L492.264 514.697C494.065 514.975 495.245 513.834 495.651 512.742C496.036 511.707 495.921 510.361 495.033 509.31C489.261 502.481 481.856 493.211 481.301 478.959C481.036 472.101 481.529 465.634 482.008 459.35C482.216 456.626 482.421 453.936 482.56 451.263C483.015 442.551 482.752 434.144 479.204 426.264L479.202 426.26C473.64 413.98 464.271 405.506 455.425 400.053C446.644 394.64 438.162 392.073 434.137 391.797C433.174 391.731 432.496 392.227 432.206 392.489C431.892 392.773 431.457 393.302 431.369 394.04ZM431.369 394.04L433.398 394.31M431.369 394.04C431.369 394.041 431.369 394.041 431.369 394.041L433.398 394.31M433.398 394.31C433.428 394.052 433.771 393.724 434.043 393.743C434.428 393.769 434.866 393.821 435.352 393.898M433.398 394.31C433.378 394.479 433.467 394.563 433.573 394.661C433.633 394.717 433.697 394.777 433.751 394.861C433.817 394.964 433.891 395.075 433.973 395.194C434.077 395.342 434.193 395.503 434.319 395.676C434.21 395.692 434.087 395.699 433.95 395.689C434.077 395.698 434.212 395.71 434.355 395.726C434.463 395.873 434.579 396.029 434.701 396.194C437.568 400.07 444.082 408.875 442.667 425.526C442.294 430.134 441.797 434.469 441.323 438.595C439.687 452.854 438.337 464.618 443.42 476.528L435.352 393.898M435.352 393.898C435.337 393.854 435.32 393.809 435.301 393.765C435.184 393.497 435.028 393.333 434.986 393.29C434.966 393.269 434.953 393.257 434.974 393.277L434.977 393.28C434.993 393.295 435.035 393.334 435.076 393.375C435.178 393.475 435.337 393.643 435.487 393.877C435.497 393.893 435.507 393.909 435.518 393.925M435.352 393.898L435.518 393.925M435.518 393.925C444.184 395.378 467.261 404.763 477.332 426.996L435.518 393.925ZM715.593 862.362L715.592 862.358C713.506 849.308 715.064 833.744 718.079 816.767C719.772 807.235 721.888 797.428 724.044 787.433C725.747 779.539 727.476 771.528 729.041 763.441C732.56 745.267 735.183 727.023 734.504 710.048C733.826 693.062 729.837 677.208 720.003 663.926L720.001 663.924C705.783 644.785 682.205 629.773 655.8 620.299C629.378 610.819 599.915 606.807 573.732 609.849C572.57 609.984 571.828 610.783 571.516 611.448C571.345 611.812 571.191 612.361 571.328 612.993C571.486 613.72 571.995 614.349 572.741 614.676C573.148 614.906 573.639 615.181 574.072 615.38L574.1 615.393L574.129 615.405C595.099 624.318 618.434 642.922 637.701 666.86C656.955 690.783 672.008 719.862 676.604 749.599C680.887 777.306 676.808 803.276 669.377 824.093C661.924 844.971 651.18 860.449 642.361 867.321C630.507 876.511 619.906 876.833 611.431 873.361C602.773 869.814 595.977 862.156 592.306 854.851L592.3 854.84C588.247 846.908 587.58 837.53 587.723 827.039C587.761 824.266 587.856 821.41 587.954 818.495C588.219 810.533 588.5 802.127 587.665 793.744L587.664 793.731C585.025 768.96 572.904 749.625 552.334 736.035C545.214 731.293 535.993 727.086 527.502 723.855C519.009 720.623 511.096 718.311 506.54 717.405C505.126 717.124 503.659 717.602 502.963 718.896C502.33 720.072 502.609 721.423 503.321 722.431L503.352 722.475L503.385 722.517C505.216 724.84 507.063 727.057 508.884 729.244C512.039 733.03 515.119 736.728 517.918 740.738C555.644 794.9 561.748 838.652 567.879 882.592C568.278 885.454 568.677 888.317 569.086 891.183C575.781 938.193 584.858 985.995 634.989 1046.68L634.989 1046.68C643.772 1057.32 653.404 1073.9 663.945 1093.09C666.648 1098.01 669.409 1103.1 672.226 1108.29C678.789 1120.38 685.658 1133.04 692.822 1145.47C691.852 1148.69 691.074 1151.82 690.474 1154.86C686.315 1175.94 690.741 1192.82 699.263 1206.06L699.267 1206.07C703.702 1212.9 709.164 1218.88 716.084 1223.74C716.552 1224.1 716.976 1224.42 717.364 1224.74C717.375 1224.96 717.42 1225.18 717.515 1225.42C717.899 1226.38 718.781 1226.74 719.346 1226.83C722.016 1227.27 738.136 1229.6 753.377 1231.79C755.735 1232.13 758.073 1232.47 760.34 1232.8C765.407 1233.53 770.113 1234.21 773.87 1234.75C775.947 1235.05 777.733 1235.31 779.129 1235.51C780.247 1235.72 781.371 1235.89 782.501 1236.01L782.516 1236.01L782.53 1236.02C782.544 1236.02 782.567 1236.02 782.595 1236.02L782.596 1236.02C782.608 1236.02 782.691 1236.03 782.792 1236.03C782.874 1236.02 783.175 1235.99 783.39 1235.93C784.31 1235.33 784.554 1233.29 783.827 1232.47C783.637 1232.36 783.359 1232.24 783.282 1232.22C783.242 1232.21 783.177 1232.19 783.151 1232.18C783.056 1232.16 782.951 1232.14 782.934 1232.14L782.932 1232.14C782.841 1232.13 782.699 1232.1 782.518 1232.08C782.149 1232.02 781.574 1231.94 780.823 1231.83C780.494 1231.78 780.13 1231.72 779.734 1231.67C766.1 1229.1 752.93 1219.93 740.212 1206.46C726.552 1192 713.664 1172.85 701.531 1152.45C700.083 1150.02 698.648 1147.57 697.224 1145.11C702.964 1127.07 714.976 1105.93 735.956 1081.3L735.957 1081.3C749.981 1064.8 762.256 1053.47 774.223 1042.42C776.061 1040.73 777.892 1039.04 779.721 1037.33C793.469 1024.55 807.031 1011.2 822.432 989.905C889.782 896.794 858.847 801.12 824.147 768.524C821.2 765.716 818.573 763.732 816.316 762.65C814.149 761.611 811.65 761.114 809.727 762.567C807.958 763.904 807.547 766.3 807.647 768.685C807.752 771.212 808.457 774.418 809.718 778.189C815.653 795.94 818.204 822.32 802.304 857.841C796.841 869.993 790.078 881.318 778.631 889.805C764.097 900.506 749.506 900.324 738.02 894.296C726.411 888.203 717.752 876.014 715.593 862.362ZM572.782 614.694C572.788 614.696 572.782 614.694 572.771 614.689L572.782 614.694ZM782.366 1235.99C782.366 1235.99 782.361 1235.99 782.354 1235.99C782.363 1235.99 782.366 1235.99 782.366 1235.99ZM574.362 611.135C574.363 611.136 574.365 611.137 574.366 611.137L574.362 611.136L574.362 611.135ZM643.702 1166.95L643.703 1166.94C646.317 1150.38 637.305 1138.57 625.361 1135.12C621.935 1134.14 618.924 1134.41 616.616 1135.85C614.338 1137.27 613.073 1139.63 612.653 1142.18C611.821 1147.22 614.17 1153.61 619.686 1157.77C625.148 1161.88 630.782 1165.8 636.634 1169.51C637.925 1170.33 639.491 1170.53 640.842 1170.12C642.235 1169.7 643.437 1168.6 643.702 1166.95ZM848.628 645.709L848.626 645.707C835.81 633.564 823.299 624.357 811.709 615.827C810.21 614.724 808.726 613.632 807.259 612.547C794.419 603.046 782.876 594.05 773.157 582.17L773.149 582.16C757.563 563.346 752.302 549.222 749.418 541.481C748.895 540.076 748.45 538.882 748.036 537.908C747.514 536.679 746.213 536.119 745.126 536.194L745.125 536.194C743.861 536.281 743.166 537.193 742.959 537.932C741.568 542.901 740.373 553.518 740.335 557.671L740.335 557.682C740.227 587.478 752.791 607.069 766.446 623.572C769.367 627.102 772.346 630.501 775.252 633.815C775.729 634.36 776.204 634.902 776.677 635.442C780.037 639.282 783.271 643.021 786.231 646.796C792.151 654.348 796.893 661.943 799.253 670.511C801.337 678.104 800.483 683.352 798.378 686.591C796.305 689.781 792.819 691.336 788.788 691.208L788.768 691.207L788.748 691.207C784.441 691.151 780.425 691.304 777.012 691.765C773.65 692.218 770.648 692.998 768.543 694.338C767.466 695.024 766.549 695.904 765.984 697.031C765.409 698.18 765.268 699.451 765.527 700.778C766.022 703.316 767.974 706.057 771.095 709.043C776.57 714.282 783.844 719.158 793.325 722.715C824.113 734.3 845.73 754.75 859.433 782.933L859.434 782.934C873.676 812.179 876.581 839.156 878.028 852.587C878.242 854.575 878.424 856.266 878.606 857.624C878.789 858.989 880.049 859.835 881.292 859.787C882.204 859.752 883.148 859.236 883.514 858.236C884.551 855.4 886.441 847.649 888.212 839.643C889.993 831.592 891.704 823.059 892.372 818.557C897.24 787.217 896.291 753.531 889.159 722.945C882.031 692.378 868.688 664.752 848.628 645.709ZM417.247 737.481L417.253 737.484C448.26 752.219 472.817 770.55 493.064 803.561L493.07 803.57C507.788 827.296 516.418 853.463 517.947 882.51C517.949 882.554 517.951 882.598 517.953 882.641L517.953 882.642C518.059 884.657 519.316 886.455 521.213 886.934C522.194 887.182 523.306 887.031 524.177 886.313C525.016 885.622 525.382 884.615 525.453 883.602C525.488 883.101 525.507 882.839 525.555 882.635L525.559 882.619L525.562 882.603C547.085 783.404 484.826 701.611 419.163 674.224C395.433 664.281 384.172 648.782 381.046 632.771C377.9 616.651 382.952 599.749 392.412 587.107L392.423 587.092L392.434 587.078C392.785 586.588 393.122 585.994 393.386 585.461L391.536 584.59L393.386 585.46C393.737 584.75 393.616 584.054 393.422 583.596C393.232 583.147 392.925 582.788 392.601 582.533C391.758 581.868 390.368 581.693 389.378 582.588C379.563 591.463 369.782 603.015 362.642 615.423C350.447 636.563 345.978 658.138 353.472 679.658L353.473 679.664C365.009 712.487 395.946 727.289 416.104 736.934C416.489 737.118 416.87 737.301 417.247 737.481ZM617.546 557.321L617.543 557.319C578.194 532.529 544.402 532.179 516.991 534.329C513.03 534.64 509.233 534.999 505.588 535.343C496.545 536.197 488.438 536.963 481.077 536.69C470.895 536.312 462.6 533.942 455.858 527.215C449.285 520.558 443.691 513.66 440.539 505.14C440.301 504.392 439.711 503.861 439.029 503.627C438.414 503.416 437.843 503.476 437.463 503.572C436.81 503.735 435.743 504.282 435.474 505.483C435.409 505.772 435.364 506.126 435.408 506.534L435.408 506.541C435.541 507.748 435.64 509.008 435.744 510.327C436.071 514.497 436.444 519.257 438.096 524.812C440.295 532.206 444.731 541.034 454.157 552.474C487.443 592.974 531.914 591.064 571.096 588.903L571.1 588.903C572.501 588.823 573.9 588.743 575.297 588.662C589.03 587.871 602.618 587.089 616.122 587.076L616.132 587.076C629.916 586.997 639.65 589.244 646.429 591.637C649.825 592.836 652.505 594.08 654.621 595.117C655.065 595.335 655.503 595.553 655.922 595.761C656.469 596.034 656.983 596.289 657.429 596.504C658.225 596.886 659.009 597.24 659.717 597.456C660.645 597.739 661.525 597.453 662.084 596.95C662.939 596.182 663.157 594.803 662.258 593.77C656.698 587.381 637.602 570.004 617.546 557.321ZM588.118 650.998L588.114 650.995C560.073 629.821 537.499 625.187 514.945 620.558C511.853 619.923 508.76 619.289 505.654 618.612C476.49 612.209 463.605 593.507 443.79 564.746C443.188 563.873 442.58 562.99 441.965 562.098C441.301 561.135 439.814 560.505 438.474 561.274C437.751 561.689 437.083 562.53 437.149 563.637C439.058 595.686 451.485 622.093 482.637 645.021L482.642 645.025C510.1 665.116 536.402 670.377 563.812 675.859C569.325 676.962 574.883 678.073 580.503 679.316C594.579 682.518 603.616 686.904 611.319 693.55C619.112 700.273 625.641 709.386 634.58 722.345C635.343 723.451 636.886 723.8 638.039 723.175C639.119 722.589 639.304 721.474 639.147 720.749C639.072 720.405 639.039 720.1 638.995 719.695L638.981 719.561L638.948 719.429C631.417 689.772 616.113 672.235 588.118 650.998ZM464.051 909.338L464.052 909.34C473.548 936.726 491.098 954.714 499.815 963.333C502.163 965.654 506.624 964.67 507.01 961.186C510.743 932.159 509.65 903.846 503.182 876.562L503.18 876.551C495.274 844.041 480.417 815.666 453.946 794.346C444.951 786.941 434.552 781.306 422.725 777.836L422.714 777.833C422.279 777.708 421.841 777.628 421.447 777.569C420.164 777.377 419.019 777.954 418.404 778.754C418.082 779.172 417.793 779.799 417.872 780.556C417.959 781.383 418.454 782.048 419.099 782.464L419.105 782.466L419.1 782.463C419.103 782.465 419.107 782.468 419.11 782.471C420.996 783.928 422.925 785.317 424.817 786.68C425.135 786.909 425.452 787.138 425.768 787.366C427.98 788.962 430.137 790.541 432.199 792.228C444.738 802.496 453.17 815.08 455.046 831.6C456.072 840.862 456.417 849.633 456.756 858.255C456.924 862.532 457.091 866.773 457.339 871.019C458.082 883.745 459.552 896.32 464.051 909.338ZM791.697 512.165L791.697 512.164C795.924 487.216 789.808 467.57 776.261 449.933C775.312 448.698 773.795 447.743 772.22 447.77C771.363 447.784 770.39 448.116 769.772 448.993C769.19 449.816 769.162 450.784 769.329 451.607C770.679 458.563 770.528 465.355 768.261 472.602C767.769 474.176 767.197 475.885 766.583 477.717C761.218 493.737 752.702 519.164 767.065 545.983L767.068 545.988C775.112 560.892 786.183 573.347 797.753 585.271L797.759 585.277L797.766 585.284C798.295 585.819 799.053 586.112 799.846 586.016C800.542 585.933 801.045 585.58 801.349 585.26C801.91 584.671 802.374 583.535 801.739 582.378C801.608 582.14 801.472 581.893 801.331 581.638C798.864 577.166 794.95 570.07 792.327 559.383C789.553 548.083 788.207 532.693 791.697 512.165ZM419.12 782.477C419.123 782.479 419.121 782.478 419.118 782.476L419.12 782.477Z" stroke="url(#paint0_linear_0_1)" stroke-width="4"/>
</g>
</g>
</g>
<g id="Rectangle 4318" filter="url(#filter9_di_0_1)">
<path d="M796.901 15.7908C132.099 188.586 -202.939 331.635 -919.5 -54.5L-995.164 100.502C-150.724 782.146 550.187 894.544 1100 676.274L796.901 15.7908Z" fill="#890303" fill-opacity="0.2" shape-rendering="crispEdges"/>
<path d="M1093.25 673.562L794.104 21.6845C739.348 35.9353 686.802 49.9853 636.07 63.5502C381.06 131.736 171.887 187.665 -41.7126 195.241C-298.142 204.336 -560.769 143.798 -917.288 -47.6328L-988.922 99.1129C-149.201 775.842 547.122 888.06 1093.25 673.562Z" stroke="url(#paint1_linear_0_1)" stroke-width="10" shape-rendering="crispEdges"/>
</g>
<g id="Group 37145">
<g id="SE CARD">
<g id="Rectangle 4299">
<g filter="url(#filter10_i_0_1)">
<rect x="-76" y="-14.4966" width="371" height="500" rx="10" fill="url(#paint2_linear_0_1)"/>
</g>
<rect x="-78.5" y="-16.9966" width="376" height="505" rx="12.5" stroke="url(#paint3_linear_0_1)" stroke-width="5"/>
</g>
<g id="singing competition" filter="url(#filter11_d_0_1)">
<path d="M34.8793 240.118C33.386 240.131 32.0399 239.886 30.8409 239.384C29.6417 238.861 28.6967 238.123 28.0059 237.169C27.315 236.214 26.9641 235.097 26.9532 233.817L30.857 233.784C30.9506 234.743 31.3306 235.529 31.9972 236.142C32.6852 236.755 33.6371 237.056 34.8531 237.046C36.1117 237.035 37.0904 236.728 37.7893 236.125C38.488 235.5 38.8332 234.708 38.825 233.748C38.8186 233.001 38.5894 232.395 38.1374 231.93C37.7068 231.464 37.1597 231.106 36.4962 230.856C35.854 230.605 34.9557 230.336 33.8012 230.047C32.3473 229.675 31.1601 229.301 30.2395 228.925C29.34 228.528 28.5668 227.915 27.9197 227.089C27.2726 226.262 26.9431 225.156 26.9313 223.769C26.9203 222.489 27.2308 221.367 27.8625 220.401C28.4943 219.436 29.384 218.692 30.5316 218.17C31.6791 217.648 33.0102 217.381 34.5249 217.368C36.6794 217.35 38.444 217.879 39.8186 218.955C41.2143 220.01 41.9949 221.475 42.1603 223.351L38.1284 223.386C38.0575 222.575 37.6676 221.885 36.9587 221.315C36.2498 220.746 35.3194 220.465 34.1674 220.475C33.1221 220.484 32.2711 220.758 31.6143 221.297C30.9576 221.836 30.6335 222.607 30.6421 223.61C30.6479 224.292 30.8554 224.856 31.2645 225.3C31.6948 225.723 32.2311 226.06 32.8732 226.311C33.5154 226.561 34.3924 226.831 35.5042 227.12C36.9797 227.513 38.1777 227.908 39.0985 228.305C40.0406 228.703 40.8353 229.325 41.4826 230.173C42.151 230.999 42.4912 232.117 42.5032 233.525C42.5129 234.655 42.2127 235.724 41.6026 236.732C41.0139 237.74 40.1355 238.558 38.9675 239.187C37.8207 239.794 36.4579 240.104 34.8793 240.118ZM55.1191 217.48L55.3091 239.719L51.6613 239.75L51.4712 217.511L55.1191 217.48ZM83.1696 239.481L79.5218 239.512L68.4042 222.999L68.5462 239.606L64.8983 239.637L64.7079 217.366L68.3558 217.335L79.4731 233.817L79.3314 217.241L82.9793 217.21L83.1696 239.481ZM108.72 223.422C108.134 222.318 107.327 221.493 106.299 220.947C105.27 220.38 104.083 220.102 102.739 220.113C101.267 220.126 99.9582 220.468 98.8119 221.139C97.6656 221.81 96.767 222.756 96.1161 223.978C95.4865 225.199 95.1786 226.61 95.1922 228.21C95.2059 229.81 95.538 231.226 96.1886 232.458C96.8603 233.668 97.7749 234.599 98.9326 235.25C100.09 235.902 101.405 236.221 102.877 236.209C104.861 236.192 106.467 235.623 107.694 234.503C108.922 233.383 109.667 231.873 109.928 229.972L101.576 230.043L101.551 227.132L113.807 227.027L113.831 229.875C113.611 231.605 113.006 233.199 112.016 234.658C111.047 236.117 109.766 237.291 108.174 238.179C106.603 239.046 104.846 239.488 102.905 239.504C100.814 239.522 98.9011 239.059 97.165 238.113C95.4286 237.147 94.0411 235.804 93.0024 234.085C91.985 232.366 91.467 230.418 91.4484 228.242C91.4298 226.066 91.9144 224.11 92.9023 222.373C93.9115 220.637 95.2759 219.281 96.9957 218.306C98.7365 217.31 100.642 216.803 102.711 216.785C105.079 216.765 107.185 217.334 109.03 218.491C110.895 219.627 112.253 221.259 113.104 223.385L108.72 223.422ZM125.766 216.876L125.957 239.115L122.309 239.147L122.119 216.907L125.766 216.876ZM153.817 238.877L150.169 238.908L139.052 222.395L139.194 239.002L135.546 239.033L135.355 216.762L139.003 216.731L150.12 233.213L149.979 216.637L153.627 216.606L153.817 238.877ZM179.367 222.818C178.782 221.714 177.975 220.889 176.946 220.343C175.917 219.776 174.731 219.498 173.387 219.509C171.915 219.522 170.606 219.864 169.459 220.535C168.313 221.206 167.414 222.152 166.764 223.374C166.134 224.596 165.826 226.006 165.84 227.606C165.853 229.206 166.185 230.622 166.836 231.854C167.508 233.064 168.422 233.995 169.58 234.646C170.738 235.298 172.052 235.617 173.524 235.605C175.508 235.588 177.114 235.019 178.342 233.899C179.57 232.78 180.314 231.269 180.575 229.368L172.224 229.44L172.199 226.528L184.454 226.423L184.479 229.271C184.259 231.001 183.654 232.595 182.663 234.055C181.694 235.514 180.414 236.687 178.821 237.576C177.25 238.442 175.494 238.884 173.552 238.901C171.462 238.918 169.549 238.455 167.812 237.51C166.076 236.543 164.689 235.2 163.65 233.481C162.632 231.762 162.114 229.814 162.096 227.638C162.077 225.462 162.562 223.506 163.55 221.769C164.559 220.033 165.923 218.677 167.643 217.702C169.384 216.706 171.289 216.199 173.358 216.181C175.726 216.161 177.832 216.73 179.677 217.887C181.543 219.024 182.901 220.655 183.751 222.781L179.367 222.818ZM-24.559 277.235C-24.5776 275.059 -24.0929 273.103 -23.1051 271.367C-22.0959 269.63 -20.7314 268.274 -19.0117 267.3C-17.2708 266.303 -15.3657 265.796 -13.2965 265.779C-10.9286 265.758 -8.8223 266.327 -6.97767 267.485C-5.1119 268.621 -3.7539 270.252 -2.9037 272.378L-7.28754 272.416C-7.87355 271.247 -8.681 270.379 -9.70988 269.812C-10.7388 269.245 -11.9252 268.967 -13.2691 268.979C-14.7411 268.991 -16.0502 269.333 -17.1965 270.004C-18.3428 270.675 -19.2413 271.632 -19.8921 272.875C-20.5215 274.118 -20.8292 275.561 -20.8151 277.203C-20.8011 278.846 -20.4688 280.283 -19.8182 281.515C-19.1463 282.747 -18.2315 283.699 -17.0737 284.372C-15.9161 285.023 -14.6013 285.343 -13.1294 285.33C-11.7854 285.318 -10.6039 285.02 -9.58489 284.436C-8.56585 283.851 -7.77335 282.969 -7.2074 281.791L-2.82356 281.754C-3.6373 283.894 -4.96721 285.548 -6.81329 286.716C-8.63805 287.884 -10.7344 288.478 -13.1023 288.498C-15.1929 288.516 -17.1062 288.052 -18.8424 287.107C-20.5787 286.14 -21.9662 284.797 -23.005 283.078C-24.0224 281.359 -24.5404 279.411 -24.559 277.235ZM16.4469 288.277C14.3776 288.295 12.4643 287.831 10.7068 286.886C8.97048 285.92 7.58295 284.577 6.54422 282.858C5.52663 281.117 5.00854 279.159 4.98994 276.983C4.97134 274.807 5.45598 272.851 6.44384 271.114C7.45303 269.377 8.81749 268.022 10.5372 267.047C12.2781 266.051 14.1832 265.544 16.2524 265.526C18.343 265.508 20.2565 265.983 21.9928 266.949C23.7503 267.894 25.1377 269.226 26.1551 270.946C27.1725 272.665 27.6905 274.613 27.7091 276.789C27.7277 278.964 27.2432 280.931 26.2555 282.689C25.2676 284.426 23.9033 285.792 22.1624 286.788C20.4427 287.763 18.5375 288.259 16.4469 288.277ZM16.4198 285.109C17.8918 285.097 19.2009 284.755 20.3472 284.084C21.4933 283.391 22.3811 282.424 23.0105 281.181C23.661 279.917 23.9793 278.463 23.9653 276.821C23.9512 275.178 23.6082 273.741 22.9364 272.509C22.2858 271.277 21.3817 270.336 20.2241 269.684C19.0665 269.033 17.7517 268.713 16.2798 268.726C14.8078 268.739 13.4987 269.08 12.3524 269.752C11.2061 270.423 10.3076 271.38 9.65685 272.623C9.02745 273.865 8.71977 275.308 8.73381 276.951C8.74785 278.593 9.08024 280.041 9.73097 281.294C10.4029 282.526 11.3177 283.478 12.4755 284.151C13.6331 284.803 14.9479 285.122 16.4198 285.109ZM59.4271 265.445L59.6172 287.684L55.9693 287.715L55.8391 272.484L49.1855 287.773L46.6576 287.795L39.7117 272.622L39.8419 287.853L36.194 287.884L36.0039 265.645L39.9398 265.612L47.8966 282.984L55.5232 265.478L59.4271 265.445ZM84.6295 271.854C84.6392 272.984 84.3816 274.053 83.8569 275.061C83.3322 276.068 82.4859 276.896 81.3181 277.546C80.15 278.175 78.6487 278.497 76.8141 278.513L72.7823 278.547L72.8594 287.571L69.2116 287.602L69.0215 265.363L76.7012 265.297C78.4078 265.283 79.8503 265.569 81.0287 266.156C82.2282 266.722 83.1203 267.504 83.7048 268.502C84.3107 269.499 84.6189 270.617 84.6295 271.854ZM76.7887 275.537C78.1753 275.525 79.2073 275.207 79.8847 274.583C80.5618 273.937 80.8955 273.038 80.8857 271.886C80.8649 269.454 79.4785 268.25 76.7266 268.273L72.6948 268.308L72.7569 275.571L76.7887 275.537ZM96.5249 268.072L96.5807 274.6L104.26 274.534L104.286 277.51L96.6061 277.576L96.6644 284.391L105.304 284.318L105.329 287.294L93.0419 287.399L92.8516 265.127L105.139 265.022L105.165 267.998L96.5249 268.072ZM128.8 264.852L128.825 267.828L122.905 267.879L123.07 287.142L119.422 287.173L119.258 267.91L113.306 267.961L113.28 264.985L128.8 264.852ZM140.942 264.748L141.132 286.987L137.484 287.019L137.294 264.779L140.942 264.748ZM164.898 264.544L164.924 267.519L159.004 267.57L159.169 286.833L155.521 286.864L155.356 267.601L149.404 267.652L149.379 264.676L164.898 264.544ZM177.041 264.44L177.231 286.679L173.583 286.71L173.393 264.471L177.041 264.44ZM196.965 286.734C194.896 286.752 192.983 286.288 191.225 285.343C189.489 284.377 188.101 283.034 187.063 281.315C186.045 279.574 185.527 277.616 185.508 275.44C185.49 273.264 185.974 271.308 186.962 269.571C187.971 267.834 189.336 266.479 191.056 265.504C192.797 264.508 194.702 264.001 196.771 263.983C198.861 263.965 200.775 264.44 202.511 265.406C204.269 266.351 205.656 267.683 206.674 269.403C207.691 271.122 208.209 273.07 208.228 275.246C208.246 277.421 207.762 279.388 206.774 281.146C205.786 282.883 204.422 284.249 202.681 285.245C200.961 286.22 199.056 286.716 196.965 286.734ZM196.938 283.566C198.41 283.554 199.719 283.212 200.866 282.541C202.012 281.848 202.899 280.881 203.529 279.638C204.179 278.374 204.498 276.92 204.484 275.278C204.47 273.635 204.127 272.198 203.455 270.966C202.804 269.734 201.9 268.793 200.743 268.141C199.585 267.49 198.27 267.17 196.798 267.183C195.326 267.196 194.017 267.537 192.871 268.209C191.725 268.88 190.826 269.837 190.175 271.08C189.546 272.322 189.238 273.765 189.252 275.408C189.266 277.05 189.599 278.498 190.249 279.751C190.921 280.983 191.836 281.935 192.994 282.608C194.151 283.26 195.466 283.579 196.938 283.566ZM234.984 286.185L231.336 286.216L220.218 269.703L220.36 286.31L216.712 286.341L216.522 264.07L220.17 264.039L231.287 280.521L231.146 263.945L234.793 263.914L234.984 286.185Z" fill="url(#paint4_linear_0_1)"/>
</g>
</g>
<g id="SE CARD_2">
<g id="Group 37142">
<g id="Polygon 14" filter="url(#filter12_i_0_1)">
<path d="M-89.0489 498.003L52.4007 486.356L-74.5508 483.503L-78.4968 212.504L-89.0489 498.003Z" fill="#C2821C"/>
</g>
<g id="Polygon 15" filter="url(#filter13_i_0_1)">
<path d="M305.408 498.003L163.959 486.356L284.954 486.356C291.047 486.356 295.979 481.403 295.954 475.31L294.856 212.504L305.408 498.003Z" fill="#C2821C"/>
</g>
<g id="Polygon 12" filter="url(#filter14_i_0_1)">
<path d="M-90.9977 -30.4965L139 -13.9962L-66.1291 -13.9962C-71.6013 -13.9962 -76.0572 -9.59789 -76.1283 -4.1262L-78.9963 216.504L-81.9961 133.003L-90.9977 -30.4965Z" fill="#C2821C"/>
</g>
<g id="Polygon 13" filter="url(#filter15_i_0_1)">
<path d="M310.499 -30.1861L101.498 -13.9961L284.003 -13.9961C290.078 -13.9961 295.003 -9.0712 295.003 -2.99607L295.003 141.504L294.997 260.504L310.499 -30.1861Z" fill="#C2821C"/>
</g>
</g>
</g>
</g>
<g id="Vector_2" filter="url(#filter16_d_0_1)">
<path d="M79.7254 52.8338C76.403 54.0034 73.2491 55.5365 70.2865 57.3589L74.9917 74.9191L67.6903 76.8755L63.7475 62.1608C60.928 64.6117 58.3644 67.3469 56.1812 70.3648C56.1697 70.3808 56.1629 70.3997 56.1514 70.4156L75.3707 142.143C75.3886 142.151 75.404 142.164 75.4219 142.172C85.7446 146.815 97.4472 147.642 108.206 144.781C119.208 141.829 128.8 135.106 135.293 126.13C135.305 126.114 135.312 126.095 135.323 126.079L116.104 54.3513C116.086 54.3433 116.071 54.3303 116.053 54.3222C112.674 52.8024 109.138 51.7363 105.545 51.0297L109.471 65.6805L102.169 67.6369L97.4769 50.1247C93.976 50.0205 90.4661 50.2464 87.0269 50.8773L92.2312 70.2999L84.9298 72.2563L79.7254 52.8338ZM54.3579 121.063L64.1989 157.79C67.5211 159.503 70.9881 160.938 74.5674 162.088C82.8134 164.736 91.6427 165.844 100.62 165.147L99.4853 160.911L123.823 154.389L124.958 158.625C133.082 154.741 140.174 149.366 145.991 142.95C148.516 140.164 150.801 137.188 152.822 134.043L142.981 97.3163L134.381 99.6205L143.091 132.127C135.447 142.579 124.284 150.616 110.742 154.245C97.1996 157.874 83.5136 156.495 71.6676 151.265L62.9575 118.758L54.3579 121.063ZM124.958 158.625C121.213 160.416 117.247 161.891 113.089 163.005C108.931 164.119 104.759 164.825 100.62 165.147L103.822 177.096L89.422 180.954L91.8314 189.946L144.969 175.708L142.56 166.716L128.16 170.575L124.958 158.625Z" fill="url(#paint5_linear_0_1)"/>
</g>
</g>
<defs>
<filter id="filter0_f_0_1" x="-841.867" y="-671.924" width="2128.78" height="1745.19" filterUnits="userSpaceOnUse" color-interpolation-filters="sRGB">
<feFlood flood-opacity="0" result="BackgroundImageFix"/>
<feBlend mode="normal" in="SourceGraphic" in2="BackgroundImageFix" result="shape"/>
<feGaussianBlur stdDeviation="250" result="effect1_foregroundBlur_0_1"/>
</filter>
<filter id="filter1_f_0_1" x="-872.453" y="-482.814" width="1469.06" height="927.815" filterUnits="userSpaceOnUse" color-interpolation-filters="sRGB">
<feFlood flood-opacity="0" result="BackgroundImageFix"/>
<feBlend mode="normal" in="SourceGraphic" in2="BackgroundImageFix" result="shape"/>
<feGaussianBlur stdDeviation="125" result="effect1_foregroundBlur_0_1"/>
</filter>
<filter id="filter2_f_0_1" x="-1851.74" y="-1433.5" width="2792.46" height="1839" filterUnits="userSpaceOnUse" color-interpolation-filters="sRGB">
<feFlood flood-opacity="0" result="BackgroundImageFix"/>
<feBlend mode="normal" in="SourceGraphic" in2="BackgroundImageFix" result="shape"/>
<feGaussianBlur stdDeviation="251.5" result="effect1_foregroundBlur_0_1"/>
</filter>
<filter id="filter4_f_0_1" x="-1408.23" y="-1369.93" width="2781.84" height="1868.18" filterUnits="userSpaceOnUse" color-interpolation-filters="sRGB">
<feFlood flood-opacity="0" result="BackgroundImageFix"/>
<feBlend mode="normal" in="SourceGraphic" in2="BackgroundImageFix" result="shape"/>
<feGaussianBlur stdDeviation="251.5" result="effect1_foregroundBlur_0_1"/>
</filter>
<filter id="filter5_f_0_1" x="-890.109" y="-841.156" width="1286.3" height="870.96" filterUnits="userSpaceOnUse" color-interpolation-filters="sRGB">
<feFlood flood-opacity="0" result="BackgroundImageFix"/>
<feBlend mode="normal" in="SourceGraphic" in2="BackgroundImageFix" result="shape"/>
<feGaussianBlur stdDeviation="150" result="effect1_foregroundBlur_0_1"/>
</filter>
<filter id="filter6_f_0_1" x="-1396.05" y="-597.557" width="1867.51" height="2236.31" filterUnits="userSpaceOnUse" color-interpolation-filters="sRGB">
<feFlood flood-opacity="0" result="BackgroundImageFix"/>
<feBlend mode="normal" in="SourceGraphic" in2="BackgroundImageFix" result="shape"/>
<feGaussianBlur stdDeviation="250" result="effect1_foregroundBlur_0_1"/>
</filter>
<filter id="filter9_di_0_1" x="-1095.16" y="-115.5" width="2295.16" height="1031.5" filterUnits="userSpaceOnUse" color-interpolation-filters="sRGB">
<feFlood flood-opacity="0" result="BackgroundImageFix"/>
<feColorMatrix in="SourceAlpha" type="matrix" values="0 0 0 0 0 0 0 0 0 0 0 0 0 0 0 0 0 0 127 0" result="hardAlpha"/>
<feOffset dy="39"/>
<feGaussianBlur stdDeviation="50"/>
<feComposite in2="hardAlpha" operator="out"/>
<feColorMatrix type="matrix" values="0 0 0 0 0.392157 0 0 0 0 0.0627451 0 0 0 0 0.0627451 0 0 0 1 0"/>
<feBlend mode="normal" in2="BackgroundImageFix" result="effect1_dropShadow_0_1"/>
<feBlend mode="normal" in="SourceGraphic" in2="effect1_dropShadow_0_1" result="shape"/>
<feColorMatrix in="SourceAlpha" type="matrix" values="0 0 0 0 0 0 0 0 0 0 0 0 0 0 0 0 0 0 127 0" result="hardAlpha"/>
<feOffset dy="-38"/>
<feGaussianBlur stdDeviation="41.4"/>
<feComposite in2="hardAlpha" operator="arithmetic" k2="-1" k3="1"/>
<feColorMatrix type="matrix" values="0 0 0 0 0 0 0 0 0 0 0 0 0 0 0 0 0 0 0.25 0"/>
<feBlend mode="normal" in2="shape" result="effect2_innerShadow_0_1"/>
</filter>
<filter id="filter10_i_0_1" x="-81" y="-19.4966" width="381" height="676.2" filterUnits="userSpaceOnUse" color-interpolation-filters="sRGB">
<feFlood flood-opacity="0" result="BackgroundImageFix"/>
<feBlend mode="normal" in="SourceGraphic" in2="BackgroundImageFix" result="shape"/>
<feColorMatrix in="SourceAlpha" type="matrix" values="0 0 0 0 0 0 0 0 0 0 0 0 0 0 0 0 0 0 127 0" result="hardAlpha"/>
<feOffset dy="204"/>
<feGaussianBlur stdDeviation="83.1"/>
<feComposite in2="hardAlpha" operator="arithmetic" k2="-1" k3="1"/>
<feColorMatrix type="matrix" values="0 0 0 0 0 0 0 0 0 0 0 0 0 0 0 0 0 0 0.25 0"/>
<feBlend mode="normal" in2="shape" result="effect1_innerShadow_0_1"/>
</filter>
<filter id="filter11_d_0_1" x="-34.7625" y="212.96" width="279.447" height="92.3668" filterUnits="userSpaceOnUse" color-interpolation-filters="sRGB">
<feFlood flood-opacity="0" result="BackgroundImageFix"/>
<feColorMatrix in="SourceAlpha" type="matrix" values="0 0 0 0 0 0 0 0 0 0 0 0 0 0 0 0 0 0 127 0" result="hardAlpha"/>
<feOffset dy="7"/>
<feGaussianBlur stdDeviation="4.85"/>
<feComposite in2="hardAlpha" operator="out"/>
<feColorMatrix type="matrix" values="0 0 0 0 0 0 0 0 0 0 0 0 0 0 0 0 0 0 0.78 0"/>
<feBlend mode="normal" in2="BackgroundImageFix" result="effect1_dropShadow_0_1"/>
<feBlend mode="normal" in="SourceGraphic" in2="effect1_dropShadow_0_1" result="shape"/>
</filter>
<filter id="filter12_i_0_1" x="-89.0469" y="212.504" width="141.445" height="289.499" filterUnits="userSpaceOnUse" color-interpolation-filters="sRGB">
<feFlood flood-opacity="0" result="BackgroundImageFix"/>
<feBlend mode="normal" in="SourceGraphic" in2="BackgroundImageFix" result="shape"/>
<feColorMatrix in="SourceAlpha" type="matrix" values="0 0 0 0 0 0 0 0 0 0 0 0 0 0 0 0 0 0 127 0" result="hardAlpha"/>
<feOffset dy="4"/>
<feGaussianBlur stdDeviation="2"/>
<feComposite in2="hardAlpha" operator="arithmetic" k2="-1" k3="1"/>
<feColorMatrix type="matrix" values="0 0 0 0 0 0 0 0 0 0 0 0 0 0 0 0 0 0 0.25 0"/>
<feBlend mode="normal" in2="shape" result="effect1_innerShadow_0_1"/>
</filter>
<filter id="filter13_i_0_1" x="163.961" y="212.504" width="141.445" height="289.499" filterUnits="userSpaceOnUse" color-interpolation-filters="sRGB">
<feFlood flood-opacity="0" result="BackgroundImageFix"/>
<feBlend mode="normal" in="SourceGraphic" in2="BackgroundImageFix" result="shape"/>
<feColorMatrix in="SourceAlpha" type="matrix" values="0 0 0 0 0 0 0 0 0 0 0 0 0 0 0 0 0 0 127 0" result="hardAlpha"/>
<feOffset dy="4"/>
<feGaussianBlur stdDeviation="2"/>
<feComposite in2="hardAlpha" operator="arithmetic" k2="-1" k3="1"/>
<feColorMatrix type="matrix" values="0 0 0 0 0 0 0 0 0 0 0 0 0 0 0 0 0 0 0.25 0"/>
<feBlend mode="normal" in2="shape" result="effect1_innerShadow_0_1"/>
</filter>
<filter id="filter14_i_0_1" x="-91" y="-30.4966" width="230" height="251" filterUnits="userSpaceOnUse" color-interpolation-filters="sRGB">
<feFlood flood-opacity="0" result="BackgroundImageFix"/>
<feBlend mode="normal" in="SourceGraphic" in2="BackgroundImageFix" result="shape"/>
<feColorMatrix in="SourceAlpha" type="matrix" values="0 0 0 0 0 0 0 0 0 0 0 0 0 0 0 0 0 0 127 0" result="hardAlpha"/>
<feOffset dy="4"/>
<feGaussianBlur stdDeviation="2"/>
<feComposite in2="hardAlpha" operator="arithmetic" k2="-1" k3="1"/>
<feColorMatrix type="matrix" values="0 0 0 0 0 0 0 0 0 0 0 0 0 0 0 0 0 0 0.25 0"/>
<feBlend mode="normal" in2="shape" result="effect1_innerShadow_0_1"/>
</filter>
<filter id="filter15_i_0_1" x="101.5" y="-30.186" width="209" height="294.69" filterUnits="userSpaceOnUse" color-interpolation-filters="sRGB">
<feFlood flood-opacity="0" result="BackgroundImageFix"/>
<feBlend mode="normal" in="SourceGraphic" in2="BackgroundImageFix" result="shape"/>
<feColorMatrix in="SourceAlpha" type="matrix" values="0 0 0 0 0 0 0 0 0 0 0 0 0 0 0 0 0 0 127 0" result="hardAlpha"/>
<feOffset dy="4"/>
<feGaussianBlur stdDeviation="2"/>
<feComposite in2="hardAlpha" operator="arithmetic" k2="-1" k3="1"/>
<feColorMatrix type="matrix" values="0 0 0 0 0 0 0 0 0 0 0 0 0 0 0 0 0 0 0.25 0"/>
<feBlend mode="normal" in2="shape" result="effect1_innerShadow_0_1"/>
</filter>
<filter id="filter16_d_0_1" x="0.659374" y="0.400585" width="205.861" height="247.246" filterUnits="userSpaceOnUse" color-interpolation-filters="sRGB">
<feFlood flood-opacity="0" result="BackgroundImageFix"/>
<feColorMatrix in="SourceAlpha" type="matrix" values="0 0 0 0 0 0 0 0 0 0 0 0 0 0 0 0 0 0 127 0" result="hardAlpha"/>
<feOffset dy="4"/>
<feGaussianBlur stdDeviation="26.85"/>
<feComposite in2="hardAlpha" operator="out"/>
<feColorMatrix type="matrix" values="0 0 0 0 0 0 0 0 0 0 0 0 0 0 0 0 0 0 1 0"/>
<feBlend mode="normal" in2="BackgroundImageFix" result="effect1_dropShadow_0_1"/>
<feBlend mode="normal" in="SourceGraphic" in2="effect1_dropShadow_0_1" result="shape"/>
</filter>
<linearGradient id="paint0_linear_0_1" x1="442.733" y1="395.524" x2="528.958" y2="959.212" gradientUnits="userSpaceOnUse">
<stop offset="0.025" stop-color="#FFC363"/>
<stop offset="0.5" stop-color="#FFE8C2"/>
<stop offset="0.995" stop-color="#955E07"/>
</linearGradient>
<linearGradient id="paint1_linear_0_1" x1="-587.547" y1="658.851" x2="650.266" y2="461.005" gradientUnits="userSpaceOnUse">
<stop stop-color="#D38900"/>
<stop offset="0.5" stop-color="#FFDBA0"/>
<stop offset="1" stop-color="#C18923"/>
</linearGradient>
<linearGradient id="paint2_linear_0_1" x1="109.5" y1="-14.4966" x2="109.5" y2="485.503" gradientUnits="userSpaceOnUse">
<stop stop-color="#5D2019"/>
<stop offset="1" stop-color="#2A0A0A"/>
</linearGradient>
<linearGradient id="paint3_linear_0_1" x1="109.5" y1="-14.4966" x2="109.5" y2="485.503" gradientUnits="userSpaceOnUse">
<stop stop-color="#FBDA7A"/>
<stop offset="1" stop-color="#7C5114"/>
</linearGradient>
<linearGradient id="paint4_linear_0_1" x1="105.154" y1="204.292" x2="105.974" y2="300.288" gradientUnits="userSpaceOnUse">
<stop stop-color="#FFAE3D"/>
<stop offset="0.49" stop-color="#FFD188"/>
<stop offset="1" stop-color="#A6660D"/>
</linearGradient>
<linearGradient id="paint5_linear_0_1" x1="83.3113" y1="51.8729" x2="118.4" y2="182.827" gradientUnits="userSpaceOnUse">
<stop stop-color="#CA8920"/>
<stop offset="1" stop-color="#F9D7A1"/>
</linearGradient>
<clipPath id="clip0_0_1">
<rect width="1440" height="6713" fill="white" transform="translate(-889 -1896)"/>
</clipPath>
</defs>
</svg>
